<mxfile host="app.diagrams.net" modified="2023-07-13T22:22:09.455Z" agent="Mozilla/5.0 (Windows NT 10.0; Win64; x64) AppleWebKit/537.36 (KHTML, like Gecko) Chrome/114.0.0.0 Safari/537.36" etag="v37FYjb4fDLexx_Qbcqe" version="21.6.2" type="github">
  <diagram id="C5RBs43oDa-KdzZeNtuy" name="Page-1">
    <mxGraphModel dx="2649" dy="3216" grid="1" gridSize="10" guides="1" tooltips="1" connect="1" arrows="1" fold="1" page="1" pageScale="1" pageWidth="827" pageHeight="1169" math="0" shadow="0">
      <root>
        <mxCell id="WIyWlLk6GJQsqaUBKTNV-0" />
        <mxCell id="WIyWlLk6GJQsqaUBKTNV-1" parent="WIyWlLk6GJQsqaUBKTNV-0" />
        <mxCell id="WIyWlLk6GJQsqaUBKTNV-2" value="" style="rounded=0;html=1;jettySize=auto;orthogonalLoop=1;fontSize=11;endArrow=block;endFill=0;endSize=8;strokeWidth=1;shadow=0;labelBackgroundColor=none;edgeStyle=orthogonalEdgeStyle;" parent="WIyWlLk6GJQsqaUBKTNV-1" source="gtVxMS7scIeHO5TLat6V-0" target="WIyWlLk6GJQsqaUBKTNV-6" edge="1">
          <mxGeometry relative="1" as="geometry" />
        </mxCell>
        <mxCell id="WIyWlLk6GJQsqaUBKTNV-3" value="Start" style="rounded=1;whiteSpace=wrap;html=1;fontSize=12;glass=0;strokeWidth=1;shadow=0;" parent="WIyWlLk6GJQsqaUBKTNV-1" vertex="1">
          <mxGeometry x="265" y="-1710" width="120" height="40" as="geometry" />
        </mxCell>
        <mxCell id="WIyWlLk6GJQsqaUBKTNV-4" value="VALUE" style="rounded=0;html=1;jettySize=auto;orthogonalLoop=1;fontSize=11;endArrow=block;endFill=0;endSize=8;strokeWidth=1;shadow=0;labelBackgroundColor=none;edgeStyle=orthogonalEdgeStyle;entryX=0.5;entryY=0;entryDx=0;entryDy=0;" parent="WIyWlLk6GJQsqaUBKTNV-1" source="gtVxMS7scIeHO5TLat6V-43" edge="1">
          <mxGeometry x="-1" y="39" relative="1" as="geometry">
            <mxPoint x="15" y="-30" as="offset" />
            <mxPoint x="325" y="-920" as="targetPoint" />
          </mxGeometry>
        </mxCell>
        <mxCell id="gtVxMS7scIeHO5TLat6V-2" style="edgeStyle=orthogonalEdgeStyle;rounded=0;orthogonalLoop=1;jettySize=auto;html=1;" edge="1" parent="WIyWlLk6GJQsqaUBKTNV-1" source="WIyWlLk6GJQsqaUBKTNV-6" target="WIyWlLk6GJQsqaUBKTNV-7">
          <mxGeometry relative="1" as="geometry" />
        </mxCell>
        <mxCell id="gtVxMS7scIeHO5TLat6V-7" value="NULL" style="edgeLabel;html=1;align=center;verticalAlign=middle;resizable=0;points=[];" vertex="1" connectable="0" parent="gtVxMS7scIeHO5TLat6V-2">
          <mxGeometry x="-0.088" y="-2" relative="1" as="geometry">
            <mxPoint as="offset" />
          </mxGeometry>
        </mxCell>
        <mxCell id="WIyWlLk6GJQsqaUBKTNV-6" value="&lt;div style=&quot;color: rgb(102, 136, 204); background-color: rgb(0, 12, 24); font-family: Consolas, &amp;quot;Courier New&amp;quot;, monospace; font-size: 14px; line-height: 19px;&quot;&gt;FileRead, SSHKey, %SSHTATION%&lt;/div&gt;" style="rhombus;whiteSpace=wrap;html=1;shadow=0;fontFamily=Helvetica;fontSize=12;align=center;strokeWidth=1;spacing=6;spacingTop=-4;" parent="WIyWlLk6GJQsqaUBKTNV-1" vertex="1">
          <mxGeometry x="212.5" y="-1120" width="225" height="120" as="geometry" />
        </mxCell>
        <mxCell id="gtVxMS7scIeHO5TLat6V-9" style="edgeStyle=orthogonalEdgeStyle;rounded=0;orthogonalLoop=1;jettySize=auto;html=1;exitX=1;exitY=0.5;exitDx=0;exitDy=0;" edge="1" parent="WIyWlLk6GJQsqaUBKTNV-1" source="WIyWlLk6GJQsqaUBKTNV-7" target="gtVxMS7scIeHO5TLat6V-8">
          <mxGeometry relative="1" as="geometry" />
        </mxCell>
        <mxCell id="WIyWlLk6GJQsqaUBKTNV-7" value="&lt;div style=&quot;color: rgb(102, 136, 204); background-color: rgb(0, 12, 24); font-family: Consolas, &amp;quot;Courier New&amp;quot;, monospace; font-size: 14px; line-height: 19px;&quot;&gt;MsgBox, No se pudo encontrar las credenciales &lt;span style=&quot;color: #225588;&quot;&gt;del&lt;/span&gt; servidor.&lt;/div&gt;" style="rounded=1;whiteSpace=wrap;html=1;fontSize=12;glass=0;strokeWidth=1;shadow=0;" parent="WIyWlLk6GJQsqaUBKTNV-1" vertex="1">
          <mxGeometry x="500" y="-1087.5" width="240" height="55" as="geometry" />
        </mxCell>
        <mxCell id="gtVxMS7scIeHO5TLat6V-13" style="edgeStyle=orthogonalEdgeStyle;rounded=0;orthogonalLoop=1;jettySize=auto;html=1;" edge="1" parent="WIyWlLk6GJQsqaUBKTNV-1" target="gtVxMS7scIeHO5TLat6V-12">
          <mxGeometry relative="1" as="geometry">
            <mxPoint x="325.0476190476188" y="-880" as="sourcePoint" />
          </mxGeometry>
        </mxCell>
        <mxCell id="gtVxMS7scIeHO5TLat6V-1" value="" style="rounded=0;html=1;jettySize=auto;orthogonalLoop=1;fontSize=11;endArrow=block;endFill=0;endSize=8;strokeWidth=1;shadow=0;labelBackgroundColor=none;edgeStyle=orthogonalEdgeStyle;" edge="1" parent="WIyWlLk6GJQsqaUBKTNV-1" source="WIyWlLk6GJQsqaUBKTNV-3" target="gtVxMS7scIeHO5TLat6V-0">
          <mxGeometry relative="1" as="geometry">
            <mxPoint x="220" y="-60" as="sourcePoint" />
            <mxPoint x="220" y="170" as="targetPoint" />
          </mxGeometry>
        </mxCell>
        <mxCell id="gtVxMS7scIeHO5TLat6V-0" value="&lt;div style=&quot;color: rgb(102, 136, 204); background-color: rgb(0, 12, 24); font-family: Consolas, &amp;quot;Courier New&amp;quot;, monospace; font-size: 14px; line-height: 19px;&quot;&gt;&lt;div style=&quot;line-height: 19px;&quot;&gt;&lt;div&gt;&lt;div style=&quot;line-height: 19px;&quot;&gt;execute := 0&lt;br style=&quot;border-color: var(--border-color);&quot;&gt;&lt;div style=&quot;border-color: var(--border-color); line-height: 19px;&quot;&gt;&lt;div style=&quot;border-color: var(--border-color);&quot;&gt;userProfile&amp;nbsp;:=&amp;nbsp;&lt;span style=&quot;border-color: var(--border-color); color: rgb(34, 170, 68);&quot;&gt;&quot;&quot;&lt;/span&gt;&lt;/div&gt;&lt;div style=&quot;border-color: var(--border-color);&quot;&gt;&lt;span style=&quot;border-color: var(--border-color); color: rgb(153, 102, 184);&quot;&gt;VarSetCapacity&lt;/span&gt;(userProfile,&amp;nbsp;&lt;span style=&quot;border-color: var(--border-color); color: rgb(242, 128, 208);&quot;&gt;32767&lt;/span&gt;)&lt;/div&gt;&lt;div style=&quot;border-color: var(--border-color);&quot;&gt;&lt;span style=&quot;border-color: var(--border-color); color: rgb(153, 102, 184);&quot;&gt;DllCall&lt;/span&gt;(&lt;span style=&quot;border-color: var(--border-color); color: rgb(34, 170, 68);&quot;&gt;&quot;kernel32\ExpandEnvironmentStrings&quot;&lt;/span&gt;,&amp;nbsp;&lt;span style=&quot;border-color: var(--border-color); color: rgb(34, 170, 68);&quot;&gt;&quot;str&quot;&lt;/span&gt;,&amp;nbsp;&lt;span style=&quot;border-color: var(--border-color); color: rgb(34, 170, 68);&quot;&gt;&quot;%USERPROFILE%&quot;&lt;/span&gt;,&amp;nbsp;&lt;span style=&quot;border-color: var(--border-color); color: rgb(34, 170, 68);&quot;&gt;&quot;str&quot;&lt;/span&gt;, userProfile,&amp;nbsp;&lt;span style=&quot;border-color: var(--border-color); color: rgb(34, 170, 68);&quot;&gt;&quot;uint&quot;&lt;/span&gt;,&amp;nbsp;&lt;span style=&quot;border-color: var(--border-color); color: rgb(242, 128, 208);&quot;&gt;32767&lt;/span&gt;)&lt;br style=&quot;border-color: var(--border-color);&quot;&gt;&lt;div style=&quot;border-color: var(--border-color); line-height: 19px;&quot;&gt;&lt;div style=&quot;border-color: var(--border-color);&quot;&gt;upgradeAHK := userProfile .&amp;nbsp;&lt;span style=&quot;border-color: var(--border-color); color: rgb(34, 170, 68);&quot;&gt;&quot;\Desktop\Upgrade.ahk&quot;&lt;/span&gt;&amp;nbsp;&lt;span style=&quot;border-color: var(--border-color); color: rgb(56, 72, 135);&quot;&gt;;Ruta de almacenamiento del AHK del Upgrade&lt;/span&gt;&lt;/div&gt;&lt;div style=&quot;border-color: var(--border-color);&quot;&gt;upgradeEXE&amp;nbsp;&lt;span style=&quot;border-color: var(--border-color); color: rgb(34, 85, 136);&quot;&gt;:=&lt;/span&gt;&amp;nbsp;userProfile .&amp;nbsp;&lt;span style=&quot;border-color: var(--border-color); color: rgb(34, 170, 68);&quot;&gt;&quot;\Desktop\Upgrade.exe&quot;&lt;/span&gt;&amp;nbsp;&lt;span style=&quot;border-color: var(--border-color); color: rgb(56, 72, 135);&quot;&gt;;Ruta de almacenamiento del EXE del Upgrade&lt;/span&gt;&lt;/div&gt;&lt;div style=&quot;border-color: var(--border-color);&quot;&gt;biometrias&amp;nbsp;&lt;span style=&quot;border-color: var(--border-color); color: rgb(34, 85, 136);&quot;&gt;:=&lt;/span&gt;&amp;nbsp;&lt;span style=&quot;border-color: var(--border-color); color: rgb(34, 170, 68);&quot;&gt;&quot;Cargando templates, aguarde&quot;&lt;/span&gt;&amp;nbsp;&lt;span style=&quot;border-color: var(--border-color); color: rgb(56, 72, 135);&quot;&gt;;Nombre del Proceso de la carga de biometrias&lt;/span&gt;&lt;/div&gt;&lt;br style=&quot;border-color: var(--border-color);&quot;&gt;&lt;div style=&quot;border-color: var(--border-color);&quot;&gt;SSHTATION&amp;nbsp;&lt;span style=&quot;border-color: var(--border-color); color: rgb(34, 85, 136);&quot;&gt;:=&lt;/span&gt;&amp;nbsp;userProfile .&amp;nbsp;&lt;span style=&quot;border-color: var(--border-color); color: rgb(34, 170, 68);&quot;&gt;&quot;\Desktop\SSHTATION.txt&quot;&lt;/span&gt;&amp;nbsp;&lt;span style=&quot;border-color: var(--border-color); color: rgb(56, 72, 135);&quot;&gt;; Ruta de almacenamiento de SSH_KEY.txt&lt;/span&gt;&lt;/div&gt;&lt;div style=&quot;border-color: var(--border-color);&quot;&gt;SSHKey&amp;nbsp;&lt;span style=&quot;border-color: var(--border-color); color: rgb(34, 85, 136);&quot;&gt;:=&lt;/span&gt;&amp;nbsp;&lt;span style=&quot;border-color: var(--border-color); color: rgb(34, 170, 68);&quot;&gt;&quot;&quot;&lt;/span&gt;&lt;/div&gt;&lt;div&gt;&lt;span style=&quot;border-color: var(--border-color); color: rgb(34, 170, 68);&quot;&gt;&lt;br&gt;&lt;/span&gt;&lt;/div&gt;&lt;/div&gt;&lt;/div&gt;&lt;/div&gt;&lt;/div&gt;&lt;/div&gt;&lt;/div&gt;&lt;/div&gt;" style="rounded=0;whiteSpace=wrap;html=1;" vertex="1" parent="WIyWlLk6GJQsqaUBKTNV-1">
          <mxGeometry x="30" y="-1510" width="590" height="330" as="geometry" />
        </mxCell>
        <mxCell id="gtVxMS7scIeHO5TLat6V-8" value="1" style="ellipse;whiteSpace=wrap;html=1;aspect=fixed;" vertex="1" parent="WIyWlLk6GJQsqaUBKTNV-1">
          <mxGeometry x="800" y="-1080" width="40" height="40" as="geometry" />
        </mxCell>
        <mxCell id="gtVxMS7scIeHO5TLat6V-11" style="edgeStyle=orthogonalEdgeStyle;rounded=0;orthogonalLoop=1;jettySize=auto;html=1;" edge="1" parent="WIyWlLk6GJQsqaUBKTNV-1" source="gtVxMS7scIeHO5TLat6V-10">
          <mxGeometry relative="1" as="geometry">
            <mxPoint x="320" y="-1610" as="targetPoint" />
          </mxGeometry>
        </mxCell>
        <mxCell id="gtVxMS7scIeHO5TLat6V-10" value="1" style="ellipse;whiteSpace=wrap;html=1;aspect=fixed;" vertex="1" parent="WIyWlLk6GJQsqaUBKTNV-1">
          <mxGeometry x="360" y="-1630" width="40" height="40" as="geometry" />
        </mxCell>
        <mxCell id="gtVxMS7scIeHO5TLat6V-16" style="edgeStyle=orthogonalEdgeStyle;rounded=0;orthogonalLoop=1;jettySize=auto;html=1;exitX=1;exitY=0.5;exitDx=0;exitDy=0;" edge="1" parent="WIyWlLk6GJQsqaUBKTNV-1" target="gtVxMS7scIeHO5TLat6V-45">
          <mxGeometry relative="1" as="geometry">
            <mxPoint x="492.51999999999975" y="-800" as="sourcePoint" />
            <mxPoint x="972.04" y="-854.3400000000001" as="targetPoint" />
            <Array as="points">
              <mxPoint x="492" y="-860" />
              <mxPoint x="970" y="-860" />
            </Array>
          </mxGeometry>
        </mxCell>
        <mxCell id="gtVxMS7scIeHO5TLat6V-17" value="ELSE" style="edgeLabel;html=1;align=center;verticalAlign=middle;resizable=0;points=[];" vertex="1" connectable="0" parent="gtVxMS7scIeHO5TLat6V-16">
          <mxGeometry x="0.0769" y="1" relative="1" as="geometry">
            <mxPoint x="-9" y="-9" as="offset" />
          </mxGeometry>
        </mxCell>
        <mxCell id="gtVxMS7scIeHO5TLat6V-21" style="edgeStyle=orthogonalEdgeStyle;rounded=0;orthogonalLoop=1;jettySize=auto;html=1;" edge="1" parent="WIyWlLk6GJQsqaUBKTNV-1" source="gtVxMS7scIeHO5TLat6V-12">
          <mxGeometry relative="1" as="geometry">
            <mxPoint x="970" y="-710" as="targetPoint" />
            <Array as="points">
              <mxPoint x="325" y="-680" />
              <mxPoint x="731" y="-680" />
              <mxPoint x="731" y="-709" />
            </Array>
          </mxGeometry>
        </mxCell>
        <mxCell id="gtVxMS7scIeHO5TLat6V-12" value="&lt;div style=&quot;color: rgb(102, 136, 204); background-color: rgb(0, 12, 24); font-family: Consolas, &amp;quot;Courier New&amp;quot;, monospace; font-size: 14px; line-height: 19px;&quot;&gt;RegExMatch(&lt;span style=&quot;color: #22aa44;&quot;&gt;&quot;HKLM\SOFTWARE\Policies\Microsoft\Windows\WindowsUpdate\AU&quot;&lt;/span&gt;, &lt;span style=&quot;color: #22aa44;&quot;&gt;&quot;NoAutoUpdate&quot;&lt;/span&gt;) &lt;span style=&quot;color: #225588;&quot;&gt;!=&lt;/span&gt; &lt;span style=&quot;color: #22aa44;&quot;&gt;&quot;&quot;&lt;/span&gt;&lt;/div&gt;" style="rhombus;whiteSpace=wrap;html=1;" vertex="1" parent="WIyWlLk6GJQsqaUBKTNV-1">
          <mxGeometry x="157.5" y="-850" width="335" height="160" as="geometry" />
        </mxCell>
        <mxCell id="gtVxMS7scIeHO5TLat6V-24" style="edgeStyle=orthogonalEdgeStyle;rounded=0;orthogonalLoop=1;jettySize=auto;html=1;" edge="1" parent="WIyWlLk6GJQsqaUBKTNV-1" target="gtVxMS7scIeHO5TLat6V-23">
          <mxGeometry relative="1" as="geometry">
            <mxPoint x="970" y="-725" as="sourcePoint" />
          </mxGeometry>
        </mxCell>
        <mxCell id="gtVxMS7scIeHO5TLat6V-22" value="TRUE" style="text;html=1;align=center;verticalAlign=middle;resizable=0;points=[];autosize=1;strokeColor=none;fillColor=none;" vertex="1" parent="WIyWlLk6GJQsqaUBKTNV-1">
          <mxGeometry x="320" y="-682" width="60" height="30" as="geometry" />
        </mxCell>
        <mxCell id="gtVxMS7scIeHO5TLat6V-28" value="" style="edgeStyle=orthogonalEdgeStyle;rounded=0;orthogonalLoop=1;jettySize=auto;html=1;entryX=0;entryY=0.5;entryDx=0;entryDy=0;" edge="1" parent="WIyWlLk6GJQsqaUBKTNV-1" source="gtVxMS7scIeHO5TLat6V-23" target="gtVxMS7scIeHO5TLat6V-46">
          <mxGeometry relative="1" as="geometry">
            <mxPoint x="1310" y="-607" as="targetPoint" />
          </mxGeometry>
        </mxCell>
        <mxCell id="gtVxMS7scIeHO5TLat6V-29" value="ELSE" style="edgeLabel;html=1;align=center;verticalAlign=middle;resizable=0;points=[];" vertex="1" connectable="0" parent="gtVxMS7scIeHO5TLat6V-28">
          <mxGeometry x="-0.6" y="-1" relative="1" as="geometry">
            <mxPoint as="offset" />
          </mxGeometry>
        </mxCell>
        <mxCell id="gtVxMS7scIeHO5TLat6V-31" style="edgeStyle=orthogonalEdgeStyle;rounded=0;orthogonalLoop=1;jettySize=auto;html=1;" edge="1" parent="WIyWlLk6GJQsqaUBKTNV-1" source="gtVxMS7scIeHO5TLat6V-23">
          <mxGeometry relative="1" as="geometry">
            <mxPoint x="970" y="-460" as="targetPoint" />
          </mxGeometry>
        </mxCell>
        <mxCell id="gtVxMS7scIeHO5TLat6V-23" value="&lt;div style=&quot;color: rgb(102, 136, 204); background-color: rgb(0, 12, 24); font-family: Consolas, &amp;quot;Courier New&amp;quot;, monospace; font-size: 14px; line-height: 19px;&quot;&gt;RegExMatch(&lt;span style=&quot;color: #22aa44;&quot;&gt;&quot;HKLM\SOFTWARE\Policies\Microsoft\Windows\System&quot;&lt;/span&gt;, &lt;span style=&quot;color: #22aa44;&quot;&gt;&quot;EnableSmartScreen&quot;&lt;/span&gt;) &lt;span style=&quot;color: #225588;&quot;&gt;!=&lt;/span&gt; &lt;span style=&quot;color: #22aa44;&quot;&gt;&quot;&quot;&lt;/span&gt;&lt;/div&gt;" style="rhombus;whiteSpace=wrap;html=1;" vertex="1" parent="WIyWlLk6GJQsqaUBKTNV-1">
          <mxGeometry x="705" y="-682" width="530" height="150" as="geometry" />
        </mxCell>
        <mxCell id="gtVxMS7scIeHO5TLat6V-34" style="edgeStyle=orthogonalEdgeStyle;rounded=0;orthogonalLoop=1;jettySize=auto;html=1;entryX=0.5;entryY=0;entryDx=0;entryDy=0;exitX=0.5;exitY=1;exitDx=0;exitDy=0;" edge="1" parent="WIyWlLk6GJQsqaUBKTNV-1" source="gtVxMS7scIeHO5TLat6V-46" target="gtVxMS7scIeHO5TLat6V-33">
          <mxGeometry relative="1" as="geometry">
            <mxPoint x="1310" y="-360" as="targetPoint" />
            <mxPoint x="1500" y="-569.5" as="sourcePoint" />
            <Array as="points">
              <mxPoint x="1510" y="-465" />
              <mxPoint x="970" y="-465" />
            </Array>
          </mxGeometry>
        </mxCell>
        <mxCell id="gtVxMS7scIeHO5TLat6V-36" style="edgeStyle=orthogonalEdgeStyle;rounded=0;orthogonalLoop=1;jettySize=auto;html=1;" edge="1" parent="WIyWlLk6GJQsqaUBKTNV-1" source="gtVxMS7scIeHO5TLat6V-33" target="gtVxMS7scIeHO5TLat6V-47">
          <mxGeometry relative="1" as="geometry">
            <mxPoint x="975" y="-230" as="targetPoint" />
          </mxGeometry>
        </mxCell>
        <mxCell id="gtVxMS7scIeHO5TLat6V-37" value="FALSE" style="edgeLabel;html=1;align=center;verticalAlign=middle;resizable=0;points=[];" vertex="1" connectable="0" parent="gtVxMS7scIeHO5TLat6V-36">
          <mxGeometry x="-0.2524" y="3" relative="1" as="geometry">
            <mxPoint as="offset" />
          </mxGeometry>
        </mxCell>
        <mxCell id="gtVxMS7scIeHO5TLat6V-39" style="edgeStyle=orthogonalEdgeStyle;rounded=0;orthogonalLoop=1;jettySize=auto;html=1;" edge="1" parent="WIyWlLk6GJQsqaUBKTNV-1" source="gtVxMS7scIeHO5TLat6V-33" target="gtVxMS7scIeHO5TLat6V-38">
          <mxGeometry relative="1" as="geometry" />
        </mxCell>
        <mxCell id="gtVxMS7scIeHO5TLat6V-40" value="TRUE" style="edgeLabel;html=1;align=center;verticalAlign=middle;resizable=0;points=[];" vertex="1" connectable="0" parent="gtVxMS7scIeHO5TLat6V-39">
          <mxGeometry x="-0.2398" y="-3" relative="1" as="geometry">
            <mxPoint as="offset" />
          </mxGeometry>
        </mxCell>
        <mxCell id="gtVxMS7scIeHO5TLat6V-33" value="&#xa;&lt;div style=&quot;color: rgb(102, 136, 204); background-color: rgb(0, 12, 24); font-family: Consolas, &amp;quot;Courier New&amp;quot;, monospace; font-weight: normal; font-size: 14px; line-height: 19px;&quot;&gt;&lt;div&gt;&lt;span style=&quot;color: #9966b8;&quot;&gt;Process&lt;/span&gt;&lt;span style=&quot;color: #6688cc;&quot;&gt;, &lt;/span&gt;&lt;span style=&quot;color: #225588;&quot;&gt;Exist&lt;/span&gt;&lt;span style=&quot;color: #6688cc;&quot;&gt;, FaceRecogProject.exe&lt;/span&gt;&lt;/div&gt;&lt;/div&gt;&#xa;&#xa;" style="rhombus;whiteSpace=wrap;html=1;" vertex="1" parent="WIyWlLk6GJQsqaUBKTNV-1">
          <mxGeometry x="790" y="-420" width="370" height="110" as="geometry" />
        </mxCell>
        <mxCell id="gtVxMS7scIeHO5TLat6V-38" value="1" style="ellipse;whiteSpace=wrap;html=1;aspect=fixed;" vertex="1" parent="WIyWlLk6GJQsqaUBKTNV-1">
          <mxGeometry x="1226" y="-385" width="40" height="40" as="geometry" />
        </mxCell>
        <mxCell id="gtVxMS7scIeHO5TLat6V-44" value="" style="rounded=0;html=1;jettySize=auto;orthogonalLoop=1;fontSize=11;endArrow=block;endFill=0;endSize=8;strokeWidth=1;shadow=0;labelBackgroundColor=none;edgeStyle=orthogonalEdgeStyle;entryX=0.5;entryY=0;entryDx=0;entryDy=0;" edge="1" parent="WIyWlLk6GJQsqaUBKTNV-1" source="WIyWlLk6GJQsqaUBKTNV-6" target="gtVxMS7scIeHO5TLat6V-43">
          <mxGeometry y="25" relative="1" as="geometry">
            <mxPoint as="offset" />
            <mxPoint x="325" y="-1000" as="sourcePoint" />
            <mxPoint x="325" y="-920" as="targetPoint" />
          </mxGeometry>
        </mxCell>
        <mxCell id="gtVxMS7scIeHO5TLat6V-43" value="&lt;div style=&quot;color: rgb(102, 136, 204); background-color: rgb(0, 12, 24); font-family: Consolas, &amp;quot;Courier New&amp;quot;, monospace; font-size: 14px; line-height: 19px;&quot;&gt;&lt;div&gt;SSHKey := &lt;span style=&quot;color: #22aa44;&quot;&gt;VALUE&lt;/span&gt;&lt;/div&gt;&lt;br&gt;&lt;/div&gt;" style="shape=process;whiteSpace=wrap;html=1;backgroundOutline=1;" vertex="1" parent="WIyWlLk6GJQsqaUBKTNV-1">
          <mxGeometry x="242.5" y="-940" width="165" height="60" as="geometry" />
        </mxCell>
        <mxCell id="gtVxMS7scIeHO5TLat6V-45" value="&lt;div style=&quot;color: rgb(102, 136, 204); background-color: rgb(0, 12, 24); font-family: Consolas, &amp;quot;Courier New&amp;quot;, monospace; font-size: 14px; line-height: 19px;&quot;&gt;RunWait, reg.exe add &lt;span style=&quot;color: #22aa44;&quot;&gt;&quot;HKLM\SOFTWARE\Policies\Microsoft\Windows\WindowsUpdate\AU&quot;&lt;/span&gt; &lt;span style=&quot;color: #225588;&quot;&gt;/&lt;/span&gt;v NoAutoUpdate &lt;span style=&quot;color: #225588;&quot;&gt;/&lt;/span&gt;t REG_DWORD &lt;span style=&quot;color: #225588;&quot;&gt;/&lt;/span&gt;d &lt;span style=&quot;color: #f280d0;&quot;&gt;1&lt;/span&gt; &lt;span style=&quot;color: #225588;&quot;&gt;/&lt;/span&gt;f &lt;/div&gt;" style="shape=process;whiteSpace=wrap;html=1;backgroundOutline=1;" vertex="1" parent="WIyWlLk6GJQsqaUBKTNV-1">
          <mxGeometry x="770" y="-825" width="420" height="110" as="geometry" />
        </mxCell>
        <mxCell id="gtVxMS7scIeHO5TLat6V-46" value="&lt;div style=&quot;color: rgb(102, 136, 204); background-color: rgb(0, 12, 24); font-family: Consolas, &amp;quot;Courier New&amp;quot;, monospace; font-size: 14px; line-height: 19px;&quot;&gt;&lt;div&gt;&amp;nbsp; &amp;nbsp; Run, reg add &lt;span style=&quot;color: #22aa44;&quot;&gt;&quot;HKLM\SOFTWARE\Policies\Microsoft\Windows\System&quot;&lt;/span&gt; &lt;span style=&quot;color: #225588;&quot;&gt;/&lt;/span&gt;v &lt;span style=&quot;color: #22aa44;&quot;&gt;&quot;EnableSmartScreen&quot;&lt;/span&gt; &lt;span style=&quot;color: #225588;&quot;&gt;/&lt;/span&gt;t REG_SZ &lt;span style=&quot;color: #225588;&quot;&gt;/&lt;/span&gt;d &lt;span style=&quot;color: #22aa44;&quot;&gt;&quot;0&quot;&lt;/span&gt; &lt;span style=&quot;color: #225588;&quot;&gt;/&lt;/span&gt;f,, &lt;span style=&quot;color: #225588;&quot;&gt;hide&lt;/span&gt;&lt;/div&gt;&lt;div&gt;&lt;/div&gt;&lt;/div&gt;" style="shape=process;whiteSpace=wrap;html=1;backgroundOutline=1;" vertex="1" parent="WIyWlLk6GJQsqaUBKTNV-1">
          <mxGeometry x="1310" y="-657" width="400" height="100" as="geometry" />
        </mxCell>
        <mxCell id="gtVxMS7scIeHO5TLat6V-49" style="edgeStyle=orthogonalEdgeStyle;rounded=0;orthogonalLoop=1;jettySize=auto;html=1;" edge="1" parent="WIyWlLk6GJQsqaUBKTNV-1" source="gtVxMS7scIeHO5TLat6V-47" target="gtVxMS7scIeHO5TLat6V-48">
          <mxGeometry relative="1" as="geometry" />
        </mxCell>
        <mxCell id="gtVxMS7scIeHO5TLat6V-47" value="&lt;div style=&quot;color: rgb(102, 136, 204); background-color: rgb(0, 12, 24); font-family: Consolas, &amp;quot;Courier New&amp;quot;, monospace; font-size: 14px; line-height: 19px;&quot;&gt;&lt;div&gt;url = www.google.com&lt;/div&gt;&lt;div&gt;&amp;nbsp; &amp;nbsp; &lt;span style=&quot;color: #9966b8;&quot;&gt;RunWait&lt;/span&gt;, ping.exe %url% &lt;span style=&quot;color: #225588;&quot;&gt;-&lt;/span&gt;n &lt;span style=&quot;color: #f280d0;&quot;&gt;1&lt;/span&gt;,, &lt;span style=&quot;color: #225588;&quot;&gt;Hide&lt;/span&gt; UseErrorlevel&lt;/div&gt;&lt;/div&gt;" style="shape=process;whiteSpace=wrap;html=1;backgroundOutline=1;" vertex="1" parent="WIyWlLk6GJQsqaUBKTNV-1">
          <mxGeometry x="865" y="-260" width="220" height="120" as="geometry" />
        </mxCell>
        <mxCell id="gtVxMS7scIeHO5TLat6V-52" style="edgeStyle=orthogonalEdgeStyle;rounded=0;orthogonalLoop=1;jettySize=auto;html=1;" edge="1" parent="WIyWlLk6GJQsqaUBKTNV-1" source="gtVxMS7scIeHO5TLat6V-48" target="gtVxMS7scIeHO5TLat6V-51">
          <mxGeometry relative="1" as="geometry" />
        </mxCell>
        <mxCell id="gtVxMS7scIeHO5TLat6V-53" value="0" style="edgeLabel;html=1;align=center;verticalAlign=middle;resizable=0;points=[];" vertex="1" connectable="0" parent="gtVxMS7scIeHO5TLat6V-52">
          <mxGeometry x="-0.1952" relative="1" as="geometry">
            <mxPoint as="offset" />
          </mxGeometry>
        </mxCell>
        <mxCell id="gtVxMS7scIeHO5TLat6V-55" style="edgeStyle=orthogonalEdgeStyle;rounded=0;orthogonalLoop=1;jettySize=auto;html=1;" edge="1" parent="WIyWlLk6GJQsqaUBKTNV-1" source="gtVxMS7scIeHO5TLat6V-48" target="gtVxMS7scIeHO5TLat6V-54">
          <mxGeometry relative="1" as="geometry" />
        </mxCell>
        <mxCell id="gtVxMS7scIeHO5TLat6V-56" value="ELSE" style="edgeLabel;html=1;align=center;verticalAlign=middle;resizable=0;points=[];" vertex="1" connectable="0" parent="gtVxMS7scIeHO5TLat6V-55">
          <mxGeometry x="0.0571" y="-1" relative="1" as="geometry">
            <mxPoint as="offset" />
          </mxGeometry>
        </mxCell>
        <mxCell id="gtVxMS7scIeHO5TLat6V-48" value="&lt;div style=&quot;color: rgb(102, 136, 204); background-color: rgb(0, 12, 24); font-family: Consolas, &amp;quot;Courier New&amp;quot;, monospace; font-size: 14px; line-height: 19px;&quot;&gt;Errorlevel&lt;/div&gt;" style="rhombus;whiteSpace=wrap;html=1;" vertex="1" parent="WIyWlLk6GJQsqaUBKTNV-1">
          <mxGeometry x="905" y="-90" width="140" height="70" as="geometry" />
        </mxCell>
        <mxCell id="gtVxMS7scIeHO5TLat6V-50" value="&lt;div style=&quot;color: rgb(102, 136, 204); background-color: rgb(0, 12, 24); font-family: Consolas, &amp;quot;Courier New&amp;quot;, monospace; font-size: 14px; line-height: 19px;&quot;&gt;CONEXIÓN PERDIDA, REVISA TU CONEXIÓN A INTERNET `nAbriendo control de acceso en` %Secs%, %Secs%&lt;/div&gt;" style="shape=document;whiteSpace=wrap;html=1;boundedLbl=1;" vertex="1" parent="WIyWlLk6GJQsqaUBKTNV-1">
          <mxGeometry x="877.5" y="160" width="195" height="100" as="geometry" />
        </mxCell>
        <mxCell id="gtVxMS7scIeHO5TLat6V-57" style="edgeStyle=orthogonalEdgeStyle;rounded=0;orthogonalLoop=1;jettySize=auto;html=1;" edge="1" parent="WIyWlLk6GJQsqaUBKTNV-1" source="gtVxMS7scIeHO5TLat6V-51" target="gtVxMS7scIeHO5TLat6V-50">
          <mxGeometry relative="1" as="geometry" />
        </mxCell>
        <mxCell id="gtVxMS7scIeHO5TLat6V-51" value="&lt;div style=&quot;color: rgb(102, 136, 204); background-color: rgb(0, 12, 24); font-family: Consolas, &amp;quot;Courier New&amp;quot;, monospace; font-size: 14px; line-height: 19px;&quot;&gt;&lt;div&gt;Secs := &lt;span style=&quot;color: #f280d0;&quot;&gt;20&lt;/span&gt;&lt;/div&gt;&lt;div&gt;&amp;nbsp; &amp;nbsp; &amp;nbsp; &amp;nbsp; &lt;span style=&quot;color: #9966b8;&quot;&gt;SetTimer&lt;/span&gt;, CountDown, &lt;span style=&quot;color: #f280d0;&quot;&gt;1000&lt;/span&gt;&lt;/div&gt;&lt;/div&gt;" style="shape=process;whiteSpace=wrap;html=1;backgroundOutline=1;" vertex="1" parent="WIyWlLk6GJQsqaUBKTNV-1">
          <mxGeometry x="895" y="20" width="160" height="100" as="geometry" />
        </mxCell>
        <mxCell id="gtVxMS7scIeHO5TLat6V-60" style="edgeStyle=orthogonalEdgeStyle;rounded=0;orthogonalLoop=1;jettySize=auto;html=1;" edge="1" parent="WIyWlLk6GJQsqaUBKTNV-1" source="gtVxMS7scIeHO5TLat6V-54" target="gtVxMS7scIeHO5TLat6V-71">
          <mxGeometry relative="1" as="geometry">
            <mxPoint x="1315.0000000000005" y="40" as="targetPoint" />
          </mxGeometry>
        </mxCell>
        <mxCell id="gtVxMS7scIeHO5TLat6V-54" value="&lt;div style=&quot;color: rgb(102, 136, 204); background-color: rgb(0, 12, 24); font-family: Consolas, &amp;quot;Courier New&amp;quot;, monospace; font-size: 14px; line-height: 19px;&quot;&gt;RunWait, &lt;span style=&quot;color: #22aa44;&quot;&gt;&quot;%userProfile%\Desktop\Controle Acesso - EVO.appref-ms&quot;&lt;/span&gt;&lt;/div&gt;" style="shape=process;whiteSpace=wrap;html=1;backgroundOutline=1;" vertex="1" parent="WIyWlLk6GJQsqaUBKTNV-1">
          <mxGeometry x="1175" y="-112.5" width="280" height="115" as="geometry" />
        </mxCell>
        <mxCell id="gtVxMS7scIeHO5TLat6V-77" style="edgeStyle=orthogonalEdgeStyle;rounded=0;orthogonalLoop=1;jettySize=auto;html=1;entryX=0.5;entryY=0;entryDx=0;entryDy=0;" edge="1" parent="WIyWlLk6GJQsqaUBKTNV-1" source="gtVxMS7scIeHO5TLat6V-66" target="gtVxMS7scIeHO5TLat6V-76">
          <mxGeometry relative="1" as="geometry" />
        </mxCell>
        <mxCell id="gtVxMS7scIeHO5TLat6V-66" value="&lt;div style=&quot;color: rgb(102, 136, 204); background-color: rgb(0, 12, 24); font-family: Consolas, &amp;quot;Courier New&amp;quot;, monospace; font-size: 14px; line-height: 19px;&quot;&gt;&lt;div&gt;&lt;span style=&quot;color: rgb(153, 102, 184);&quot;&gt;Process&lt;/span&gt;, &lt;span style=&quot;color: rgb(34, 85, 136);&quot;&gt;Exist&lt;/span&gt;, biometrias&lt;br&gt;&lt;/div&gt;&lt;/div&gt;" style="shape=process;whiteSpace=wrap;html=1;backgroundOutline=1;" vertex="1" parent="WIyWlLk6GJQsqaUBKTNV-1">
          <mxGeometry x="1187.5" y="200" width="255" height="30" as="geometry" />
        </mxCell>
        <mxCell id="gtVxMS7scIeHO5TLat6V-72" style="edgeStyle=orthogonalEdgeStyle;rounded=0;orthogonalLoop=1;jettySize=auto;html=1;" edge="1" parent="WIyWlLk6GJQsqaUBKTNV-1" source="gtVxMS7scIeHO5TLat6V-73" target="gtVxMS7scIeHO5TLat6V-66">
          <mxGeometry relative="1" as="geometry" />
        </mxCell>
        <mxCell id="gtVxMS7scIeHO5TLat6V-82" style="edgeStyle=orthogonalEdgeStyle;rounded=0;orthogonalLoop=1;jettySize=auto;html=1;entryX=0.5;entryY=0;entryDx=0;entryDy=0;entryPerimeter=0;" edge="1" parent="WIyWlLk6GJQsqaUBKTNV-1" source="gtVxMS7scIeHO5TLat6V-71" target="gtVxMS7scIeHO5TLat6V-84">
          <mxGeometry relative="1" as="geometry">
            <mxPoint x="1560" y="100" as="targetPoint" />
          </mxGeometry>
        </mxCell>
        <mxCell id="gtVxMS7scIeHO5TLat6V-83" value="FALSE" style="edgeLabel;html=1;align=center;verticalAlign=middle;resizable=0;points=[];" vertex="1" connectable="0" parent="gtVxMS7scIeHO5TLat6V-82">
          <mxGeometry x="-0.7746" y="-1" relative="1" as="geometry">
            <mxPoint as="offset" />
          </mxGeometry>
        </mxCell>
        <mxCell id="gtVxMS7scIeHO5TLat6V-71" value="&lt;div style=&quot;color: rgb(102, 136, 204); background-color: rgb(0, 12, 24); font-family: Consolas, &amp;quot;Courier New&amp;quot;, monospace; font-size: 14px; line-height: 19px;&quot;&gt;&lt;div&gt;i=&lt;span style=&quot;color: #f280d0;&quot;&gt;0&lt;/span&gt;;i&lt;span style=&quot;color: #225588;&quot;&gt;&amp;gt;&lt;/span&gt;&lt;span style=&quot;color: #f280d0;&quot;&gt;1&lt;/span&gt; &lt;span style=&quot;color: #225588;&quot;&gt;&amp;amp;&amp;amp;&lt;/span&gt; execute=false&lt;/div&gt;&lt;/div&gt;" style="rhombus;whiteSpace=wrap;html=1;" vertex="1" parent="WIyWlLk6GJQsqaUBKTNV-1">
          <mxGeometry x="1220" y="45" width="190" height="50" as="geometry" />
        </mxCell>
        <mxCell id="gtVxMS7scIeHO5TLat6V-74" value="" style="edgeStyle=orthogonalEdgeStyle;rounded=0;orthogonalLoop=1;jettySize=auto;html=1;" edge="1" parent="WIyWlLk6GJQsqaUBKTNV-1" source="gtVxMS7scIeHO5TLat6V-71" target="gtVxMS7scIeHO5TLat6V-73">
          <mxGeometry relative="1" as="geometry">
            <mxPoint x="1315" y="130" as="sourcePoint" />
            <mxPoint x="1315" y="260" as="targetPoint" />
          </mxGeometry>
        </mxCell>
        <mxCell id="gtVxMS7scIeHO5TLat6V-75" value="TRUE" style="edgeLabel;html=1;align=center;verticalAlign=middle;resizable=0;points=[];" vertex="1" connectable="0" parent="gtVxMS7scIeHO5TLat6V-74">
          <mxGeometry x="-0.0611" y="-1" relative="1" as="geometry">
            <mxPoint as="offset" />
          </mxGeometry>
        </mxCell>
        <mxCell id="gtVxMS7scIeHO5TLat6V-73" value="&lt;div style=&quot;border-color: var(--border-color); color: rgb(102, 136, 204); font-family: Consolas, &amp;quot;Courier New&amp;quot;, monospace; font-size: 14px;&quot;&gt;&lt;div style=&quot;background-color: rgb(0, 12, 24); line-height: 19px;&quot;&gt;Sleep, &lt;span style=&quot;color: #f280d0;&quot;&gt;500&lt;/span&gt;&lt;/div&gt;&lt;/div&gt;" style="strokeWidth=2;html=1;shape=mxgraph.flowchart.delay;whiteSpace=wrap;" vertex="1" parent="WIyWlLk6GJQsqaUBKTNV-1">
          <mxGeometry x="1265" y="140" width="100" height="40" as="geometry" />
        </mxCell>
        <mxCell id="gtVxMS7scIeHO5TLat6V-79" style="edgeStyle=orthogonalEdgeStyle;rounded=0;orthogonalLoop=1;jettySize=auto;html=1;" edge="1" parent="WIyWlLk6GJQsqaUBKTNV-1" source="gtVxMS7scIeHO5TLat6V-76" target="gtVxMS7scIeHO5TLat6V-78">
          <mxGeometry relative="1" as="geometry" />
        </mxCell>
        <mxCell id="gtVxMS7scIeHO5TLat6V-76" value="&lt;div style=&quot;color: rgb(102, 136, 204); background-color: rgb(0, 12, 24); font-family: Consolas, &amp;quot;Courier New&amp;quot;, monospace; font-size: 14px; line-height: 19px;&quot;&gt;ErrorLevel &lt;span style=&quot;color: #225588;&quot;&gt;=&lt;/span&gt; &lt;span style=&quot;color: #f280d0;&quot;&gt;0&lt;/span&gt;&lt;/div&gt;" style="rhombus;whiteSpace=wrap;html=1;" vertex="1" parent="WIyWlLk6GJQsqaUBKTNV-1">
          <mxGeometry x="1217.5" y="260" width="195" height="80" as="geometry" />
        </mxCell>
        <mxCell id="gtVxMS7scIeHO5TLat6V-80" style="edgeStyle=orthogonalEdgeStyle;rounded=0;orthogonalLoop=1;jettySize=auto;html=1;" edge="1" parent="WIyWlLk6GJQsqaUBKTNV-1" source="gtVxMS7scIeHO5TLat6V-78">
          <mxGeometry relative="1" as="geometry">
            <mxPoint x="1315" y="20" as="targetPoint" />
            <Array as="points">
              <mxPoint x="1315" y="430" />
              <mxPoint x="1170" y="430" />
              <mxPoint x="1170" y="20" />
            </Array>
          </mxGeometry>
        </mxCell>
        <mxCell id="gtVxMS7scIeHO5TLat6V-78" value="&lt;div style=&quot;color: rgb(102, 136, 204); background-color: rgb(0, 12, 24); font-family: Consolas, &amp;quot;Courier New&amp;quot;, monospace; font-size: 14px; line-height: 19px;&quot;&gt;execute=true&lt;/div&gt;" style="shape=process;whiteSpace=wrap;html=1;backgroundOutline=1;" vertex="1" parent="WIyWlLk6GJQsqaUBKTNV-1">
          <mxGeometry x="1255" y="370" width="120" height="30" as="geometry" />
        </mxCell>
        <mxCell id="gtVxMS7scIeHO5TLat6V-86" style="edgeStyle=orthogonalEdgeStyle;rounded=0;orthogonalLoop=1;jettySize=auto;html=1;" edge="1" parent="WIyWlLk6GJQsqaUBKTNV-1" source="gtVxMS7scIeHO5TLat6V-84" target="gtVxMS7scIeHO5TLat6V-85">
          <mxGeometry relative="1" as="geometry" />
        </mxCell>
        <mxCell id="gtVxMS7scIeHO5TLat6V-84" value="&lt;div style=&quot;color: rgb(102, 136, 204); background-color: rgb(0, 12, 24); font-family: Consolas, &amp;quot;Courier New&amp;quot;, monospace; font-size: 14px; line-height: 19px;&quot;&gt;Mtto&lt;/div&gt;" style="html=1;dashed=0;whiteSpace=wrap;shape=mxgraph.dfd.loop" vertex="1" parent="WIyWlLk6GJQsqaUBKTNV-1">
          <mxGeometry x="1590" y="100" width="80" height="30" as="geometry" />
        </mxCell>
        <mxCell id="gtVxMS7scIeHO5TLat6V-91" style="edgeStyle=orthogonalEdgeStyle;rounded=0;orthogonalLoop=1;jettySize=auto;html=1;" edge="1" parent="WIyWlLk6GJQsqaUBKTNV-1" source="gtVxMS7scIeHO5TLat6V-85" target="gtVxMS7scIeHO5TLat6V-87">
          <mxGeometry relative="1" as="geometry" />
        </mxCell>
        <mxCell id="gtVxMS7scIeHO5TLat6V-85" value="&lt;div style=&quot;color: rgb(102, 136, 204); background-color: rgb(0, 12, 24); font-family: Consolas, &amp;quot;Courier New&amp;quot;, monospace; font-size: 14px; line-height: 19px;&quot;&gt;&lt;div&gt;SetTimer, RestartComputer, &lt;span style=&quot;color: #f280d0;&quot;&gt;1000&lt;/span&gt;&lt;/div&gt;&lt;div&gt;&amp;nbsp; &amp;nbsp; &lt;span style=&quot;color: #ddbb88;&quot;&gt;RestartComputer:&lt;/span&gt;&lt;/div&gt;&lt;div&gt;&amp;nbsp; &amp;nbsp; currentHour &lt;span style=&quot;color: #225588;&quot;&gt;:=&lt;/span&gt; &lt;span style=&quot;color: #f280d0;&quot;&gt;A_Hour&lt;/span&gt;&lt;/div&gt;&lt;div&gt;&amp;nbsp; &amp;nbsp; currentMin &lt;span style=&quot;color: #225588;&quot;&gt;:=&lt;/span&gt; &lt;span style=&quot;color: #f280d0;&quot;&gt;A_Min&lt;/span&gt;&lt;/div&gt;&lt;div&gt;&amp;nbsp; &amp;nbsp; currentSec &lt;span style=&quot;color: #225588;&quot;&gt;:=&lt;/span&gt; &lt;span style=&quot;color: #f280d0;&quot;&gt;A_Sec&lt;/span&gt;&lt;/div&gt;&lt;div&gt;&amp;nbsp; &amp;nbsp; &lt;span style=&quot;color: #9966b8;&quot;&gt;WinGetTitle&lt;/span&gt;, titulo, &lt;span style=&quot;color: #225588;&quot;&gt;ahk_exe&lt;/span&gt; FaceRecogProject.exe&lt;/div&gt;&lt;div&gt;&amp;nbsp; &amp;nbsp; &lt;span style=&quot;color: #9966b8;&quot;&gt;WinActivate&lt;/span&gt;, %titulo%&lt;/div&gt;&lt;div&gt;&amp;nbsp; &amp;nbsp; &lt;span style=&quot;color: #9966b8;&quot;&gt;Sleep&lt;/span&gt;, &lt;span style=&quot;color: #f280d0;&quot;&gt;10000&lt;/span&gt;&lt;/div&gt;&lt;div&gt;&amp;nbsp; &amp;nbsp; executed &lt;span style=&quot;color: #225588;&quot;&gt;:=&lt;/span&gt; &lt;span style=&quot;color: #f280d0;&quot;&gt;0&lt;/span&gt;&lt;/div&gt;&lt;/div&gt;" style="shape=process;whiteSpace=wrap;html=1;backgroundOutline=1;" vertex="1" parent="WIyWlLk6GJQsqaUBKTNV-1">
          <mxGeometry x="1480" y="200" width="300" height="240" as="geometry" />
        </mxCell>
        <mxCell id="gtVxMS7scIeHO5TLat6V-97" style="edgeStyle=orthogonalEdgeStyle;rounded=0;orthogonalLoop=1;jettySize=auto;html=1;" edge="1" parent="WIyWlLk6GJQsqaUBKTNV-1" source="gtVxMS7scIeHO5TLat6V-87" target="gtVxMS7scIeHO5TLat6V-92">
          <mxGeometry relative="1" as="geometry" />
        </mxCell>
        <mxCell id="gtVxMS7scIeHO5TLat6V-224" style="edgeStyle=orthogonalEdgeStyle;rounded=0;orthogonalLoop=1;jettySize=auto;html=1;entryX=1;entryY=0.5;entryDx=0;entryDy=0;" edge="1" parent="WIyWlLk6GJQsqaUBKTNV-1" source="gtVxMS7scIeHO5TLat6V-87" target="gtVxMS7scIeHO5TLat6V-221">
          <mxGeometry relative="1" as="geometry">
            <Array as="points">
              <mxPoint x="1521" y="490" />
              <mxPoint x="1521" y="500" />
            </Array>
          </mxGeometry>
        </mxCell>
        <mxCell id="gtVxMS7scIeHO5TLat6V-87" value="&lt;div style=&quot;color: rgb(102, 136, 204); background-color: rgb(0, 12, 24); font-family: Consolas, &amp;quot;Courier New&amp;quot;, monospace; font-size: 14px; line-height: 19px;&quot;&gt;Switch (currentHour)&lt;/div&gt;" style="swimlane;fontStyle=0;childLayout=stackLayout;horizontal=1;startSize=60;horizontalStack=0;resizeParent=1;resizeParentMax=0;resizeLast=0;collapsible=1;marginBottom=0;whiteSpace=wrap;html=1;" vertex="1" parent="WIyWlLk6GJQsqaUBKTNV-1">
          <mxGeometry x="1557.5" y="470" width="145" height="150" as="geometry">
            <mxRectangle x="1530" y="480" width="190" height="30" as="alternateBounds" />
          </mxGeometry>
        </mxCell>
        <mxCell id="gtVxMS7scIeHO5TLat6V-88" value="&lt;div style=&quot;background-color: rgb(0, 12, 24); font-family: Consolas, &amp;quot;Courier New&amp;quot;, monospace; font-size: 14px; line-height: 19px;&quot;&gt;&lt;div style=&quot;line-height: 19px;&quot;&gt;&lt;div style=&quot;line-height: 19px;&quot;&gt;&lt;font color=&quot;#6688cc&quot;&gt;Case &lt;/font&gt;&lt;font color=&quot;#f280d0&quot;&gt;10&lt;/font&gt;&lt;font color=&quot;#6688cc&quot;&gt;:&lt;/font&gt;&lt;/div&gt;&lt;/div&gt;&lt;/div&gt;" style="text;strokeColor=none;fillColor=none;align=left;verticalAlign=middle;spacingLeft=4;spacingRight=4;overflow=hidden;points=[[0,0.5],[1,0.5]];portConstraint=eastwest;rotatable=0;whiteSpace=wrap;html=1;" vertex="1" parent="gtVxMS7scIeHO5TLat6V-87">
          <mxGeometry y="60" width="145" height="30" as="geometry" />
        </mxCell>
        <mxCell id="gtVxMS7scIeHO5TLat6V-89" value="&lt;div style=&quot;background-color: rgb(0, 12, 24); font-family: Consolas, &amp;quot;Courier New&amp;quot;, monospace; font-size: 14px; line-height: 19px;&quot;&gt;&lt;span style=&quot;color: rgb(102, 136, 204);&quot;&gt;Case &lt;/span&gt;&lt;font color=&quot;#f280d0&quot;&gt;12&lt;/font&gt;&lt;font color=&quot;#6688cc&quot;&gt;:&lt;/font&gt;&lt;/div&gt;" style="text;strokeColor=none;fillColor=none;align=left;verticalAlign=middle;spacingLeft=4;spacingRight=4;overflow=hidden;points=[[0,0.5],[1,0.5]];portConstraint=eastwest;rotatable=0;whiteSpace=wrap;html=1;" vertex="1" parent="gtVxMS7scIeHO5TLat6V-87">
          <mxGeometry y="90" width="145" height="30" as="geometry" />
        </mxCell>
        <mxCell id="gtVxMS7scIeHO5TLat6V-90" value="&lt;div style=&quot;color: rgb(102, 136, 204); background-color: rgb(0, 12, 24); font-family: Consolas, &amp;quot;Courier New&amp;quot;, monospace; font-size: 14px; line-height: 19px;&quot;&gt;&lt;div style=&quot;line-height: 19px;&quot;&gt;Case &lt;span style=&quot;color: #f280d0;&quot;&gt;16&lt;/span&gt;:&lt;/div&gt;&lt;/div&gt;" style="text;strokeColor=none;fillColor=none;align=left;verticalAlign=middle;spacingLeft=4;spacingRight=4;overflow=hidden;points=[[0,0.5],[1,0.5]];portConstraint=eastwest;rotatable=0;whiteSpace=wrap;html=1;" vertex="1" parent="gtVxMS7scIeHO5TLat6V-87">
          <mxGeometry y="120" width="145" height="30" as="geometry" />
        </mxCell>
        <mxCell id="gtVxMS7scIeHO5TLat6V-98" style="edgeStyle=orthogonalEdgeStyle;rounded=0;orthogonalLoop=1;jettySize=auto;html=1;" edge="1" parent="WIyWlLk6GJQsqaUBKTNV-1" source="gtVxMS7scIeHO5TLat6V-92" target="gtVxMS7scIeHO5TLat6V-96">
          <mxGeometry relative="1" as="geometry" />
        </mxCell>
        <mxCell id="gtVxMS7scIeHO5TLat6V-118" value="ELSE" style="edgeLabel;html=1;align=center;verticalAlign=middle;resizable=0;points=[];" vertex="1" connectable="0" parent="gtVxMS7scIeHO5TLat6V-98">
          <mxGeometry x="-0.1935" relative="1" as="geometry">
            <mxPoint as="offset" />
          </mxGeometry>
        </mxCell>
        <mxCell id="gtVxMS7scIeHO5TLat6V-114" style="edgeStyle=orthogonalEdgeStyle;rounded=0;orthogonalLoop=1;jettySize=auto;html=1;entryX=0.5;entryY=0;entryDx=0;entryDy=0;" edge="1" parent="WIyWlLk6GJQsqaUBKTNV-1" source="gtVxMS7scIeHO5TLat6V-92" target="gtVxMS7scIeHO5TLat6V-101">
          <mxGeometry relative="1" as="geometry" />
        </mxCell>
        <mxCell id="gtVxMS7scIeHO5TLat6V-115" value="TRUE" style="edgeLabel;html=1;align=center;verticalAlign=middle;resizable=0;points=[];" vertex="1" connectable="0" parent="gtVxMS7scIeHO5TLat6V-114">
          <mxGeometry x="0.3686" y="-1" relative="1" as="geometry">
            <mxPoint as="offset" />
          </mxGeometry>
        </mxCell>
        <mxCell id="gtVxMS7scIeHO5TLat6V-92" value="&lt;div style=&quot;background-color: rgb(0, 12, 24); font-family: Consolas, &amp;quot;Courier New&amp;quot;, monospace; font-size: 14px; line-height: 19px;&quot;&gt;&lt;span style=&quot;color: rgb(102, 136, 204);&quot;&gt;Case =&amp;nbsp;&lt;/span&gt;&lt;font color=&quot;#f280d0&quot;&gt;10&lt;/font&gt;&lt;/div&gt;" style="rhombus;whiteSpace=wrap;html=1;" vertex="1" parent="WIyWlLk6GJQsqaUBKTNV-1">
          <mxGeometry x="1565" y="660" width="130" height="80" as="geometry" />
        </mxCell>
        <mxCell id="gtVxMS7scIeHO5TLat6V-106" style="edgeStyle=orthogonalEdgeStyle;rounded=0;orthogonalLoop=1;jettySize=auto;html=1;entryX=0.5;entryY=0;entryDx=0;entryDy=0;" edge="1" parent="WIyWlLk6GJQsqaUBKTNV-1" source="gtVxMS7scIeHO5TLat6V-95" target="gtVxMS7scIeHO5TLat6V-105">
          <mxGeometry relative="1" as="geometry">
            <Array as="points">
              <mxPoint x="1630" y="1010" />
              <mxPoint x="1630" y="1010" />
            </Array>
          </mxGeometry>
        </mxCell>
        <mxCell id="gtVxMS7scIeHO5TLat6V-109" value="TRUE" style="edgeLabel;html=1;align=center;verticalAlign=middle;resizable=0;points=[];" vertex="1" connectable="0" parent="gtVxMS7scIeHO5TLat6V-106">
          <mxGeometry x="0.0657" y="-3" relative="1" as="geometry">
            <mxPoint as="offset" />
          </mxGeometry>
        </mxCell>
        <mxCell id="gtVxMS7scIeHO5TLat6V-112" style="edgeStyle=orthogonalEdgeStyle;rounded=0;orthogonalLoop=1;jettySize=auto;html=1;" edge="1" parent="WIyWlLk6GJQsqaUBKTNV-1" source="gtVxMS7scIeHO5TLat6V-95">
          <mxGeometry relative="1" as="geometry">
            <mxPoint x="1630" y="470" as="targetPoint" />
            <Array as="points">
              <mxPoint x="1841" y="940" />
              <mxPoint x="1841" y="450" />
            </Array>
          </mxGeometry>
        </mxCell>
        <mxCell id="gtVxMS7scIeHO5TLat6V-113" value="ELSE" style="edgeLabel;html=1;align=center;verticalAlign=middle;resizable=0;points=[];" vertex="1" connectable="0" parent="gtVxMS7scIeHO5TLat6V-112">
          <mxGeometry x="-0.4808" relative="1" as="geometry">
            <mxPoint as="offset" />
          </mxGeometry>
        </mxCell>
        <mxCell id="gtVxMS7scIeHO5TLat6V-95" value="&lt;div style=&quot;background-color: rgb(0, 12, 24); font-family: Consolas, &amp;quot;Courier New&amp;quot;, monospace; font-size: 14px; line-height: 19px;&quot;&gt;&lt;span style=&quot;color: rgb(102, 136, 204);&quot;&gt;Case =&amp;nbsp;&lt;/span&gt;&lt;font color=&quot;#f280d0&quot;&gt;16&lt;/font&gt;&lt;/div&gt;" style="rhombus;whiteSpace=wrap;html=1;" vertex="1" parent="WIyWlLk6GJQsqaUBKTNV-1">
          <mxGeometry x="1565" y="900" width="130" height="80" as="geometry" />
        </mxCell>
        <mxCell id="gtVxMS7scIeHO5TLat6V-99" style="edgeStyle=orthogonalEdgeStyle;rounded=0;orthogonalLoop=1;jettySize=auto;html=1;" edge="1" parent="WIyWlLk6GJQsqaUBKTNV-1" source="gtVxMS7scIeHO5TLat6V-96" target="gtVxMS7scIeHO5TLat6V-95">
          <mxGeometry relative="1" as="geometry" />
        </mxCell>
        <mxCell id="gtVxMS7scIeHO5TLat6V-119" value="ELSE" style="edgeLabel;html=1;align=center;verticalAlign=middle;resizable=0;points=[];" vertex="1" connectable="0" parent="gtVxMS7scIeHO5TLat6V-99">
          <mxGeometry x="-0.3674" relative="1" as="geometry">
            <mxPoint as="offset" />
          </mxGeometry>
        </mxCell>
        <mxCell id="gtVxMS7scIeHO5TLat6V-104" style="edgeStyle=orthogonalEdgeStyle;rounded=0;orthogonalLoop=1;jettySize=auto;html=1;entryX=0.5;entryY=0;entryDx=0;entryDy=0;" edge="1" parent="WIyWlLk6GJQsqaUBKTNV-1" source="gtVxMS7scIeHO5TLat6V-96" target="gtVxMS7scIeHO5TLat6V-103">
          <mxGeometry relative="1" as="geometry" />
        </mxCell>
        <mxCell id="gtVxMS7scIeHO5TLat6V-108" value="TRUE" style="edgeLabel;html=1;align=center;verticalAlign=middle;resizable=0;points=[];" vertex="1" connectable="0" parent="gtVxMS7scIeHO5TLat6V-104">
          <mxGeometry x="-0.15" y="-4" relative="1" as="geometry">
            <mxPoint as="offset" />
          </mxGeometry>
        </mxCell>
        <mxCell id="gtVxMS7scIeHO5TLat6V-96" value="&lt;div style=&quot;background-color: rgb(0, 12, 24); font-family: Consolas, &amp;quot;Courier New&amp;quot;, monospace; font-size: 14px; line-height: 19px;&quot;&gt;&lt;span style=&quot;color: rgb(102, 136, 204);&quot;&gt;Case =&amp;nbsp;&lt;/span&gt;&lt;font color=&quot;#f280d0&quot;&gt;12&lt;/font&gt;&lt;/div&gt;" style="rhombus;whiteSpace=wrap;html=1;" vertex="1" parent="WIyWlLk6GJQsqaUBKTNV-1">
          <mxGeometry x="1565" y="780" width="130" height="80" as="geometry" />
        </mxCell>
        <mxCell id="gtVxMS7scIeHO5TLat6V-121" style="edgeStyle=orthogonalEdgeStyle;rounded=0;orthogonalLoop=1;jettySize=auto;html=1;entryX=0.5;entryY=0;entryDx=0;entryDy=0;" edge="1" parent="WIyWlLk6GJQsqaUBKTNV-1" source="gtVxMS7scIeHO5TLat6V-101" target="gtVxMS7scIeHO5TLat6V-120">
          <mxGeometry relative="1" as="geometry" />
        </mxCell>
        <mxCell id="gtVxMS7scIeHO5TLat6V-122" value="TRUE" style="edgeLabel;html=1;align=center;verticalAlign=middle;resizable=0;points=[];" vertex="1" connectable="0" parent="gtVxMS7scIeHO5TLat6V-121">
          <mxGeometry x="-0.1191" y="-1" relative="1" as="geometry">
            <mxPoint as="offset" />
          </mxGeometry>
        </mxCell>
        <mxCell id="gtVxMS7scIeHO5TLat6V-129" style="edgeStyle=orthogonalEdgeStyle;rounded=0;orthogonalLoop=1;jettySize=auto;html=1;entryX=0.5;entryY=0;entryDx=0;entryDy=0;" edge="1" parent="WIyWlLk6GJQsqaUBKTNV-1" source="gtVxMS7scIeHO5TLat6V-101" target="gtVxMS7scIeHO5TLat6V-125">
          <mxGeometry relative="1" as="geometry" />
        </mxCell>
        <mxCell id="gtVxMS7scIeHO5TLat6V-101" value="&lt;br&gt;&lt;div style=&quot;color: rgb(102, 136, 204); background-color: rgb(0, 12, 24); font-family: Consolas, &amp;quot;Courier New&amp;quot;, monospace; font-weight: normal; font-size: 14px; line-height: 19px;&quot;&gt;&lt;div&gt;&lt;span style=&quot;color: #6688cc;&quot;&gt;(currentMin &lt;/span&gt;&lt;span style=&quot;color: #225588;&quot;&gt;=&lt;/span&gt;&lt;span style=&quot;color: #6688cc;&quot;&gt; &lt;/span&gt;&lt;span style=&quot;color: #f280d0;&quot;&gt;50&lt;/span&gt;&lt;span style=&quot;color: #6688cc;&quot;&gt;) &lt;/span&gt;&lt;span style=&quot;color: #225588;&quot;&gt;and&lt;/span&gt;&lt;span style=&quot;color: #6688cc;&quot;&gt; (executed &lt;/span&gt;&lt;span style=&quot;color: #225588;&quot;&gt;==&lt;/span&gt;&lt;span style=&quot;color: #6688cc;&quot;&gt; &lt;/span&gt;&lt;span style=&quot;color: #f280d0;&quot;&gt;0&lt;/span&gt;&lt;span style=&quot;color: #6688cc;&quot;&gt;)&lt;/span&gt;&lt;/div&gt;&lt;/div&gt;&lt;br&gt;" style="rhombus;whiteSpace=wrap;html=1;" vertex="1" parent="WIyWlLk6GJQsqaUBKTNV-1">
          <mxGeometry x="1141" y="720" width="210" height="100" as="geometry" />
        </mxCell>
        <mxCell id="gtVxMS7scIeHO5TLat6V-127" style="edgeStyle=orthogonalEdgeStyle;rounded=0;orthogonalLoop=1;jettySize=auto;html=1;entryX=0.5;entryY=0;entryDx=0;entryDy=0;" edge="1" parent="WIyWlLk6GJQsqaUBKTNV-1" source="gtVxMS7scIeHO5TLat6V-103" target="gtVxMS7scIeHO5TLat6V-125">
          <mxGeometry relative="1" as="geometry">
            <mxPoint x="1250" y="940" as="targetPoint" />
          </mxGeometry>
        </mxCell>
        <mxCell id="gtVxMS7scIeHO5TLat6V-206" value="FALSE" style="edgeLabel;html=1;align=center;verticalAlign=middle;resizable=0;points=[];" vertex="1" connectable="0" parent="gtVxMS7scIeHO5TLat6V-127">
          <mxGeometry x="-0.743" y="-2" relative="1" as="geometry">
            <mxPoint x="8" y="2" as="offset" />
          </mxGeometry>
        </mxCell>
        <mxCell id="gtVxMS7scIeHO5TLat6V-208" style="edgeStyle=orthogonalEdgeStyle;rounded=0;orthogonalLoop=1;jettySize=auto;html=1;" edge="1" parent="WIyWlLk6GJQsqaUBKTNV-1" source="gtVxMS7scIeHO5TLat6V-103" target="gtVxMS7scIeHO5TLat6V-205">
          <mxGeometry relative="1" as="geometry" />
        </mxCell>
        <mxCell id="gtVxMS7scIeHO5TLat6V-209" value="TRUE" style="edgeLabel;html=1;align=center;verticalAlign=middle;resizable=0;points=[];" vertex="1" connectable="0" parent="gtVxMS7scIeHO5TLat6V-208">
          <mxGeometry x="-0.4" y="-1" relative="1" as="geometry">
            <mxPoint as="offset" />
          </mxGeometry>
        </mxCell>
        <mxCell id="gtVxMS7scIeHO5TLat6V-103" value="&lt;br&gt;&lt;div style=&quot;color: rgb(102, 136, 204); background-color: rgb(0, 12, 24); font-family: Consolas, &amp;quot;Courier New&amp;quot;, monospace; font-weight: normal; font-size: 14px; line-height: 19px;&quot;&gt;&lt;div&gt;&lt;span style=&quot;color: #6688cc;&quot;&gt;(currentMin &lt;/span&gt;&lt;span style=&quot;color: #225588;&quot;&gt;=&lt;/span&gt;&lt;span style=&quot;color: #6688cc;&quot;&gt;&amp;nbsp;2&lt;/span&gt;&lt;span style=&quot;color: #f280d0;&quot;&gt;0&lt;/span&gt;&lt;span style=&quot;color: #6688cc;&quot;&gt;)&amp;nbsp;&lt;/span&gt;&lt;/div&gt;&lt;/div&gt;" style="rhombus;whiteSpace=wrap;html=1;" vertex="1" parent="WIyWlLk6GJQsqaUBKTNV-1">
          <mxGeometry x="1325" y="910" width="220" height="40" as="geometry" />
        </mxCell>
        <mxCell id="gtVxMS7scIeHO5TLat6V-128" style="edgeStyle=orthogonalEdgeStyle;rounded=0;orthogonalLoop=1;jettySize=auto;html=1;entryX=0.5;entryY=0;entryDx=0;entryDy=0;" edge="1" parent="WIyWlLk6GJQsqaUBKTNV-1" source="gtVxMS7scIeHO5TLat6V-105" target="gtVxMS7scIeHO5TLat6V-125">
          <mxGeometry relative="1" as="geometry">
            <mxPoint x="1250" y="1040" as="targetPoint" />
          </mxGeometry>
        </mxCell>
        <mxCell id="gtVxMS7scIeHO5TLat6V-207" value="FALSE" style="edgeLabel;html=1;align=center;verticalAlign=middle;resizable=0;points=[];" vertex="1" connectable="0" parent="gtVxMS7scIeHO5TLat6V-128">
          <mxGeometry x="-0.342" y="-2" relative="1" as="geometry">
            <mxPoint as="offset" />
          </mxGeometry>
        </mxCell>
        <mxCell id="gtVxMS7scIeHO5TLat6V-217" style="edgeStyle=orthogonalEdgeStyle;rounded=0;orthogonalLoop=1;jettySize=auto;html=1;" edge="1" parent="WIyWlLk6GJQsqaUBKTNV-1" source="gtVxMS7scIeHO5TLat6V-105" target="gtVxMS7scIeHO5TLat6V-215">
          <mxGeometry relative="1" as="geometry" />
        </mxCell>
        <mxCell id="gtVxMS7scIeHO5TLat6V-218" value="TRUE" style="edgeLabel;html=1;align=center;verticalAlign=middle;resizable=0;points=[];" vertex="1" connectable="0" parent="gtVxMS7scIeHO5TLat6V-217">
          <mxGeometry x="0.2778" relative="1" as="geometry">
            <mxPoint as="offset" />
          </mxGeometry>
        </mxCell>
        <mxCell id="gtVxMS7scIeHO5TLat6V-105" value="&lt;br&gt;&lt;div style=&quot;color: rgb(102, 136, 204); background-color: rgb(0, 12, 24); font-family: Consolas, &amp;quot;Courier New&amp;quot;, monospace; font-weight: normal; font-size: 14px; line-height: 19px;&quot;&gt;&lt;div&gt;&lt;span style=&quot;color: #6688cc;&quot;&gt;(currentMin &lt;/span&gt;&lt;span style=&quot;color: #225588;&quot;&gt;=&lt;/span&gt;&lt;span style=&quot;color: #6688cc;&quot;&gt; &lt;/span&gt;&lt;span style=&quot;color: #f280d0;&quot;&gt;20&lt;/span&gt;&lt;span style=&quot;color: #6688cc;&quot;&gt;)&amp;nbsp;&lt;/span&gt;&lt;/div&gt;&lt;/div&gt;" style="rhombus;whiteSpace=wrap;html=1;" vertex="1" parent="WIyWlLk6GJQsqaUBKTNV-1">
          <mxGeometry x="1537.5" y="1030" width="185" height="50" as="geometry" />
        </mxCell>
        <mxCell id="gtVxMS7scIeHO5TLat6V-133" style="edgeStyle=orthogonalEdgeStyle;rounded=0;orthogonalLoop=1;jettySize=auto;html=1;" edge="1" parent="WIyWlLk6GJQsqaUBKTNV-1" source="gtVxMS7scIeHO5TLat6V-120" target="gtVxMS7scIeHO5TLat6V-132">
          <mxGeometry relative="1" as="geometry" />
        </mxCell>
        <mxCell id="gtVxMS7scIeHO5TLat6V-120" value="&lt;div style=&quot;color: rgb(102, 136, 204); background-color: rgb(0, 12, 24); font-family: Consolas, &amp;quot;Courier New&amp;quot;, monospace; font-size: 14px; line-height: 19px;&quot;&gt;&lt;div&gt;pingy := www.google.com&lt;/div&gt;&lt;div&gt;&amp;nbsp; &amp;nbsp; &amp;nbsp; &amp;nbsp; &amp;nbsp; &amp;nbsp; &amp;nbsp; &amp;nbsp; &lt;span style=&quot;color: #9966b8;&quot;&gt;RunWait&lt;/span&gt;, ping.exe %pingy% &lt;span style=&quot;color: #225588;&quot;&gt;-&lt;/span&gt;n &lt;span style=&quot;color: #f280d0;&quot;&gt;1&lt;/span&gt;,, &lt;span style=&quot;color: #225588;&quot;&gt;Hide&lt;/span&gt; UseErrorlevel&lt;/div&gt;&lt;/div&gt;" style="shape=process;whiteSpace=wrap;html=1;backgroundOutline=1;" vertex="1" parent="WIyWlLk6GJQsqaUBKTNV-1">
          <mxGeometry x="855" y="810" width="200" height="140" as="geometry" />
        </mxCell>
        <mxCell id="gtVxMS7scIeHO5TLat6V-125" value="2" style="ellipse;whiteSpace=wrap;html=1;" vertex="1" parent="WIyWlLk6GJQsqaUBKTNV-1">
          <mxGeometry x="1226" y="1110" width="40" height="40" as="geometry" />
        </mxCell>
        <mxCell id="gtVxMS7scIeHO5TLat6V-131" style="edgeStyle=orthogonalEdgeStyle;rounded=0;orthogonalLoop=1;jettySize=auto;html=1;entryX=0.5;entryY=0;entryDx=0;entryDy=0;" edge="1" parent="WIyWlLk6GJQsqaUBKTNV-1" source="gtVxMS7scIeHO5TLat6V-130" target="gtVxMS7scIeHO5TLat6V-87">
          <mxGeometry relative="1" as="geometry">
            <Array as="points">
              <mxPoint x="1630" y="450" />
            </Array>
          </mxGeometry>
        </mxCell>
        <mxCell id="gtVxMS7scIeHO5TLat6V-130" value="2" style="ellipse;whiteSpace=wrap;html=1;" vertex="1" parent="WIyWlLk6GJQsqaUBKTNV-1">
          <mxGeometry x="1890" y="430" width="40" height="40" as="geometry" />
        </mxCell>
        <mxCell id="gtVxMS7scIeHO5TLat6V-135" style="edgeStyle=orthogonalEdgeStyle;rounded=0;orthogonalLoop=1;jettySize=auto;html=1;" edge="1" parent="WIyWlLk6GJQsqaUBKTNV-1" source="gtVxMS7scIeHO5TLat6V-132" target="gtVxMS7scIeHO5TLat6V-134">
          <mxGeometry relative="1" as="geometry" />
        </mxCell>
        <mxCell id="gtVxMS7scIeHO5TLat6V-153" style="edgeStyle=orthogonalEdgeStyle;rounded=0;orthogonalLoop=1;jettySize=auto;html=1;entryX=0.5;entryY=0;entryDx=0;entryDy=0;" edge="1" parent="WIyWlLk6GJQsqaUBKTNV-1" source="gtVxMS7scIeHO5TLat6V-132" target="gtVxMS7scIeHO5TLat6V-152">
          <mxGeometry relative="1" as="geometry" />
        </mxCell>
        <mxCell id="gtVxMS7scIeHO5TLat6V-154" value="ELSE" style="edgeLabel;html=1;align=center;verticalAlign=middle;resizable=0;points=[];" vertex="1" connectable="0" parent="gtVxMS7scIeHO5TLat6V-153">
          <mxGeometry x="0.4288" y="1" relative="1" as="geometry">
            <mxPoint x="441" y="-1" as="offset" />
          </mxGeometry>
        </mxCell>
        <mxCell id="gtVxMS7scIeHO5TLat6V-132" value="&lt;div style=&quot;color: rgb(102, 136, 204); background-color: rgb(0, 12, 24); font-family: Consolas, &amp;quot;Courier New&amp;quot;, monospace; font-size: 14px; line-height: 19px;&quot;&gt;pingOutput&amp;lt;&lt;span style=&quot;color: #f280d0;&quot;&gt;100 &amp;amp;&amp;nbsp;&lt;/span&gt;FileExist&lt;span style=&quot;&quot;&gt;(&lt;/span&gt;&lt;span style=&quot;color: rgb(34, 170, 68);&quot;&gt;&quot;%upgradeEXE%&quot;&lt;/span&gt;&lt;span style=&quot;&quot;&gt;)&lt;/span&gt;&lt;/div&gt;" style="rhombus;whiteSpace=wrap;html=1;" vertex="1" parent="WIyWlLk6GJQsqaUBKTNV-1">
          <mxGeometry x="795.63" y="1030" width="318.75" height="80" as="geometry" />
        </mxCell>
        <mxCell id="gtVxMS7scIeHO5TLat6V-137" style="edgeStyle=orthogonalEdgeStyle;rounded=0;orthogonalLoop=1;jettySize=auto;html=1;entryX=0.5;entryY=0;entryDx=0;entryDy=0;" edge="1" parent="WIyWlLk6GJQsqaUBKTNV-1" source="gtVxMS7scIeHO5TLat6V-134" target="gtVxMS7scIeHO5TLat6V-136">
          <mxGeometry relative="1" as="geometry" />
        </mxCell>
        <mxCell id="gtVxMS7scIeHO5TLat6V-134" value="&lt;div style=&quot;color: rgb(102, 136, 204); background-color: rgb(0, 12, 24); font-family: Consolas, &amp;quot;Courier New&amp;quot;, monospace; font-size: 14px; line-height: 19px;&quot;&gt;Process, &lt;span style=&quot;color: #225588;&quot;&gt;Exist&lt;/span&gt;, Upgrade.exe&lt;/div&gt;" style="shape=process;whiteSpace=wrap;html=1;backgroundOutline=1;" vertex="1" parent="WIyWlLk6GJQsqaUBKTNV-1">
          <mxGeometry x="856.25" y="1180" width="197.51" height="50" as="geometry" />
        </mxCell>
        <mxCell id="gtVxMS7scIeHO5TLat6V-139" style="edgeStyle=orthogonalEdgeStyle;rounded=0;orthogonalLoop=1;jettySize=auto;html=1;" edge="1" parent="WIyWlLk6GJQsqaUBKTNV-1" source="gtVxMS7scIeHO5TLat6V-136" target="gtVxMS7scIeHO5TLat6V-138">
          <mxGeometry relative="1" as="geometry" />
        </mxCell>
        <mxCell id="gtVxMS7scIeHO5TLat6V-142" value="TRUE" style="edgeLabel;html=1;align=center;verticalAlign=middle;resizable=0;points=[];" vertex="1" connectable="0" parent="gtVxMS7scIeHO5TLat6V-139">
          <mxGeometry x="-0.1933" y="2" relative="1" as="geometry">
            <mxPoint as="offset" />
          </mxGeometry>
        </mxCell>
        <mxCell id="gtVxMS7scIeHO5TLat6V-149" style="edgeStyle=orthogonalEdgeStyle;rounded=0;orthogonalLoop=1;jettySize=auto;html=1;entryX=1;entryY=0.5;entryDx=0;entryDy=0;" edge="1" parent="WIyWlLk6GJQsqaUBKTNV-1" source="gtVxMS7scIeHO5TLat6V-136" target="gtVxMS7scIeHO5TLat6V-143">
          <mxGeometry relative="1" as="geometry" />
        </mxCell>
        <mxCell id="gtVxMS7scIeHO5TLat6V-150" value="FALSE" style="edgeLabel;html=1;align=center;verticalAlign=middle;resizable=0;points=[];" vertex="1" connectable="0" parent="gtVxMS7scIeHO5TLat6V-149">
          <mxGeometry x="0.1599" y="-2" relative="1" as="geometry">
            <mxPoint as="offset" />
          </mxGeometry>
        </mxCell>
        <mxCell id="gtVxMS7scIeHO5TLat6V-136" value="&#xa;&lt;div style=&quot;color: rgb(102, 136, 204); background-color: rgb(0, 12, 24); font-family: Consolas, &amp;quot;Courier New&amp;quot;, monospace; font-weight: normal; font-size: 14px; line-height: 19px;&quot;&gt;&lt;div&gt;&lt;span style=&quot;color: #6688cc;&quot;&gt;(&lt;/span&gt;&lt;span style=&quot;color: #f280d0;&quot;&gt;ErrorLevel&lt;/span&gt;&lt;span style=&quot;color: #6688cc;&quot;&gt; &lt;/span&gt;&lt;span style=&quot;color: #225588;&quot;&gt;==&lt;/span&gt;&lt;span style=&quot;color: #6688cc;&quot;&gt; &lt;/span&gt;&lt;span style=&quot;color: #f280d0;&quot;&gt;0&lt;/span&gt;&lt;span style=&quot;color: #6688cc;&quot;&gt;)&lt;/span&gt;&lt;/div&gt;&lt;/div&gt;&#xa;&#xa;" style="rhombus;whiteSpace=wrap;html=1;" vertex="1" parent="WIyWlLk6GJQsqaUBKTNV-1">
          <mxGeometry x="875" y="1270" width="160" height="60" as="geometry" />
        </mxCell>
        <mxCell id="gtVxMS7scIeHO5TLat6V-141" style="edgeStyle=orthogonalEdgeStyle;rounded=0;orthogonalLoop=1;jettySize=auto;html=1;" edge="1" parent="WIyWlLk6GJQsqaUBKTNV-1" source="gtVxMS7scIeHO5TLat6V-138" target="gtVxMS7scIeHO5TLat6V-140">
          <mxGeometry relative="1" as="geometry" />
        </mxCell>
        <mxCell id="gtVxMS7scIeHO5TLat6V-138" value="&lt;div style=&quot;color: rgb(102, 136, 204); background-color: rgb(0, 12, 24); font-family: Consolas, &amp;quot;Courier New&amp;quot;, monospace; font-size: 14px; line-height: 19px;&quot;&gt;&amp;nbsp;Run, %upgradeEXE%&lt;/div&gt;" style="shape=process;whiteSpace=wrap;html=1;backgroundOutline=1;" vertex="1" parent="WIyWlLk6GJQsqaUBKTNV-1">
          <mxGeometry x="865.01" y="1390" width="180" height="40" as="geometry" />
        </mxCell>
        <mxCell id="gtVxMS7scIeHO5TLat6V-140" value="&lt;div style=&quot;color: rgb(102, 136, 204); background-color: rgb(0, 12, 24); font-family: Consolas, &amp;quot;Courier New&amp;quot;, monospace; font-size: 14px; line-height: 19px;&quot;&gt;Break&lt;/div&gt;" style="strokeWidth=2;html=1;shape=mxgraph.flowchart.loop_limit;whiteSpace=wrap;" vertex="1" parent="WIyWlLk6GJQsqaUBKTNV-1">
          <mxGeometry x="905" y="1470" width="100" height="60" as="geometry" />
        </mxCell>
        <mxCell id="gtVxMS7scIeHO5TLat6V-151" style="edgeStyle=orthogonalEdgeStyle;rounded=0;orthogonalLoop=1;jettySize=auto;html=1;entryX=0.5;entryY=0;entryDx=0;entryDy=0;exitX=0;exitY=0.5;exitDx=0;exitDy=0;" edge="1" parent="WIyWlLk6GJQsqaUBKTNV-1" source="gtVxMS7scIeHO5TLat6V-143" target="gtVxMS7scIeHO5TLat6V-134">
          <mxGeometry relative="1" as="geometry">
            <mxPoint x="420" y="1140" as="targetPoint" />
            <Array as="points">
              <mxPoint x="421" y="1300" />
              <mxPoint x="421" y="1140" />
              <mxPoint x="955" y="1140" />
            </Array>
          </mxGeometry>
        </mxCell>
        <mxCell id="gtVxMS7scIeHO5TLat6V-143" value="&lt;div style=&quot;color: rgb(102, 136, 204); background-color: rgb(0, 12, 24); font-family: Consolas, &amp;quot;Courier New&amp;quot;, monospace; font-size: 14px; line-height: 19px;&quot;&gt;&amp;nbsp;Process, &lt;span style=&quot;color: #225588;&quot;&gt;Close&lt;/span&gt;, Upgrade.exe&lt;/div&gt;" style="shape=process;whiteSpace=wrap;html=1;backgroundOutline=1;" vertex="1" parent="WIyWlLk6GJQsqaUBKTNV-1">
          <mxGeometry x="430" y="1285" width="310" height="30" as="geometry" />
        </mxCell>
        <mxCell id="gtVxMS7scIeHO5TLat6V-156" style="edgeStyle=orthogonalEdgeStyle;rounded=0;orthogonalLoop=1;jettySize=auto;html=1;" edge="1" parent="WIyWlLk6GJQsqaUBKTNV-1" source="gtVxMS7scIeHO5TLat6V-152" target="gtVxMS7scIeHO5TLat6V-155">
          <mxGeometry relative="1" as="geometry" />
        </mxCell>
        <mxCell id="gtVxMS7scIeHO5TLat6V-152" value="&lt;div style=&quot;color: rgb(102, 136, 204); background-color: rgb(0, 12, 24); font-family: Consolas, &amp;quot;Courier New&amp;quot;, monospace; font-size: 14px; line-height: 19px;&quot;&gt;url := &quot;https://api.github.com/repos/STATION-24/Scripts/contents/Accesos/Upgrade.ahk&quot;&lt;br&gt;&lt;div style=&quot;line-height: 19px;&quot;&gt;http.&lt;span style=&quot;color: #ddbb88;&quot;&gt;SetRequestHeader&lt;/span&gt;(&lt;span style=&quot;color: #22aa44;&quot;&gt;&quot;Authorization&quot;&lt;/span&gt;, &lt;span style=&quot;color: #22aa44;&quot;&gt;&quot;token &quot;&lt;/span&gt; . SSHKey)&lt;br&gt;&lt;div style=&quot;line-height: 19px;&quot;&gt;http := &lt;span style=&quot;color: #9966b8;&quot;&gt;ComObjCreate&lt;/span&gt;(&lt;span style=&quot;color: #22aa44;&quot;&gt;&quot;WinHttp.WinHttpRequest.5.1&quot;&lt;/span&gt;)&lt;br&gt;&lt;div style=&quot;line-height: 19px;&quot;&gt;http.Open(&lt;span style=&quot;color: #22aa44;&quot;&gt;&quot;GET&quot;&lt;/span&gt;, url)&lt;br&gt;&lt;div style=&quot;line-height: 19px;&quot;&gt;http.Send()&lt;br&gt;&lt;div style=&quot;line-height: 19px;&quot;&gt;response := http.ResponseText&lt;br&gt;&lt;div style=&quot;line-height: 19px;&quot;&gt;downloadUrl := &lt;span style=&quot;color: #9966b8;&quot;&gt;RegExMatch&lt;/span&gt;(response, &lt;span style=&quot;color: #22aa44;&quot;&gt;&quot;&lt;/span&gt;&lt;span style=&quot;color: #f280d0;&quot;&gt;&quot;&quot;&lt;/span&gt;&lt;span style=&quot;color: #22aa44;&quot;&gt;download_url&lt;/span&gt;&lt;span style=&quot;color: #f280d0;&quot;&gt;&quot;&quot;&lt;/span&gt;&lt;span style=&quot;color: #22aa44;&quot;&gt;:\s*&lt;/span&gt;&lt;span style=&quot;color: #f280d0;&quot;&gt;&quot;&quot;&lt;/span&gt;&lt;span style=&quot;color: #22aa44;&quot;&gt;([^&lt;/span&gt;&lt;span style=&quot;color: #f280d0;&quot;&gt;&quot;&quot;&lt;/span&gt;&lt;span style=&quot;color: #22aa44;&quot;&gt;]+)&lt;/span&gt;&lt;span style=&quot;color: #f280d0;&quot;&gt;&quot;&quot;&lt;/span&gt;&lt;span style=&quot;color: #22aa44;&quot;&gt;&quot;&lt;/span&gt;, match)&lt;/div&gt;&lt;/div&gt;&lt;/div&gt;&lt;/div&gt;&lt;/div&gt;&lt;/div&gt;&lt;/div&gt;" style="shape=process;whiteSpace=wrap;html=1;backgroundOutline=1;" vertex="1" parent="WIyWlLk6GJQsqaUBKTNV-1">
          <mxGeometry x="-450" y="1130" width="840" height="160" as="geometry" />
        </mxCell>
        <mxCell id="gtVxMS7scIeHO5TLat6V-158" style="edgeStyle=orthogonalEdgeStyle;rounded=0;orthogonalLoop=1;jettySize=auto;html=1;" edge="1" parent="WIyWlLk6GJQsqaUBKTNV-1" source="gtVxMS7scIeHO5TLat6V-155" target="gtVxMS7scIeHO5TLat6V-157">
          <mxGeometry relative="1" as="geometry" />
        </mxCell>
        <mxCell id="gtVxMS7scIeHO5TLat6V-159" value="TRUE" style="edgeLabel;html=1;align=center;verticalAlign=middle;resizable=0;points=[];" vertex="1" connectable="0" parent="gtVxMS7scIeHO5TLat6V-158">
          <mxGeometry x="-0.1491" y="4" relative="1" as="geometry">
            <mxPoint as="offset" />
          </mxGeometry>
        </mxCell>
        <mxCell id="gtVxMS7scIeHO5TLat6V-161" style="edgeStyle=orthogonalEdgeStyle;rounded=0;orthogonalLoop=1;jettySize=auto;html=1;" edge="1" parent="WIyWlLk6GJQsqaUBKTNV-1" source="gtVxMS7scIeHO5TLat6V-155" target="gtVxMS7scIeHO5TLat6V-160">
          <mxGeometry relative="1" as="geometry" />
        </mxCell>
        <mxCell id="gtVxMS7scIeHO5TLat6V-162" value="FALSE" style="edgeLabel;html=1;align=center;verticalAlign=middle;resizable=0;points=[];" vertex="1" connectable="0" parent="gtVxMS7scIeHO5TLat6V-161">
          <mxGeometry x="-0.3225" y="-1" relative="1" as="geometry">
            <mxPoint as="offset" />
          </mxGeometry>
        </mxCell>
        <mxCell id="gtVxMS7scIeHO5TLat6V-155" value="&lt;div style=&quot;color: rgb(102, 136, 204); background-color: rgb(0, 12, 24); font-family: Consolas, &amp;quot;Courier New&amp;quot;, monospace; font-size: 14px; line-height: 19px;&quot;&gt;(downloadUrl)&lt;/div&gt;" style="rhombus;whiteSpace=wrap;html=1;" vertex="1" parent="WIyWlLk6GJQsqaUBKTNV-1">
          <mxGeometry x="-115" y="1340" width="170" height="70" as="geometry" />
        </mxCell>
        <mxCell id="gtVxMS7scIeHO5TLat6V-164" style="edgeStyle=orthogonalEdgeStyle;rounded=0;orthogonalLoop=1;jettySize=auto;html=1;" edge="1" parent="WIyWlLk6GJQsqaUBKTNV-1" source="gtVxMS7scIeHO5TLat6V-157" target="gtVxMS7scIeHO5TLat6V-163">
          <mxGeometry relative="1" as="geometry" />
        </mxCell>
        <mxCell id="gtVxMS7scIeHO5TLat6V-157" value="&lt;div style=&quot;color: rgb(102, 136, 204); background-color: rgb(0, 12, 24); font-family: Consolas, &amp;quot;Courier New&amp;quot;, monospace; font-size: 14px; line-height: 19px;&quot;&gt;&lt;br&gt;urlDownload := match1&lt;br&gt;&lt;div style=&quot;line-height: 19px;&quot;&gt;savePath := upgradeAHK&lt;br&gt;&lt;div style=&quot;line-height: 19px;&quot;&gt;URLDownloadToFile, %urlDownload%, %savePath%&lt;/div&gt;&lt;/div&gt;&lt;/div&gt;" style="shape=process;whiteSpace=wrap;html=1;backgroundOutline=1;" vertex="1" parent="WIyWlLk6GJQsqaUBKTNV-1">
          <mxGeometry x="-162.5" y="1460" width="265" height="110" as="geometry" />
        </mxCell>
        <mxCell id="gtVxMS7scIeHO5TLat6V-160" value="&lt;div style=&quot;color: rgb(102, 136, 204); background-color: rgb(0, 12, 24); font-family: Consolas, &amp;quot;Courier New&amp;quot;, monospace; font-size: 14px; line-height: 19px;&quot;&gt;Error al obtener la descarga &lt;span style=&quot;color: #225588;&quot;&gt;del&lt;/span&gt; archivo.&lt;/div&gt;" style="shape=document;whiteSpace=wrap;html=1;boundedLbl=1;" vertex="1" parent="WIyWlLk6GJQsqaUBKTNV-1">
          <mxGeometry x="150" y="1335" width="170" height="80" as="geometry" />
        </mxCell>
        <mxCell id="gtVxMS7scIeHO5TLat6V-166" style="edgeStyle=orthogonalEdgeStyle;rounded=0;orthogonalLoop=1;jettySize=auto;html=1;" edge="1" parent="WIyWlLk6GJQsqaUBKTNV-1" source="gtVxMS7scIeHO5TLat6V-163" target="gtVxMS7scIeHO5TLat6V-165">
          <mxGeometry relative="1" as="geometry" />
        </mxCell>
        <mxCell id="gtVxMS7scIeHO5TLat6V-167" value="TRUE" style="edgeLabel;html=1;align=center;verticalAlign=middle;resizable=0;points=[];" vertex="1" connectable="0" parent="gtVxMS7scIeHO5TLat6V-166">
          <mxGeometry x="0.0429" y="-1" relative="1" as="geometry">
            <mxPoint as="offset" />
          </mxGeometry>
        </mxCell>
        <mxCell id="gtVxMS7scIeHO5TLat6V-169" style="edgeStyle=orthogonalEdgeStyle;rounded=0;orthogonalLoop=1;jettySize=auto;html=1;" edge="1" parent="WIyWlLk6GJQsqaUBKTNV-1" source="gtVxMS7scIeHO5TLat6V-163" target="gtVxMS7scIeHO5TLat6V-168">
          <mxGeometry relative="1" as="geometry" />
        </mxCell>
        <mxCell id="gtVxMS7scIeHO5TLat6V-170" value="FALSE" style="edgeLabel;html=1;align=center;verticalAlign=middle;resizable=0;points=[];" vertex="1" connectable="0" parent="gtVxMS7scIeHO5TLat6V-169">
          <mxGeometry x="0.2" y="1" relative="1" as="geometry">
            <mxPoint x="-1" y="-10" as="offset" />
          </mxGeometry>
        </mxCell>
        <mxCell id="gtVxMS7scIeHO5TLat6V-163" value="&#xa;&lt;div style=&quot;color: rgb(102, 136, 204); background-color: rgb(0, 12, 24); font-family: Consolas, &amp;quot;Courier New&amp;quot;, monospace; font-weight: normal; font-size: 14px; line-height: 19px;&quot;&gt;&lt;div&gt;&lt;span style=&quot;color: #6688cc;&quot;&gt;(&lt;/span&gt;&lt;span style=&quot;color: #f280d0;&quot;&gt;ErrorLevel&lt;/span&gt;&lt;span style=&quot;color: #6688cc;&quot;&gt; &lt;/span&gt;&lt;span style=&quot;color: #225588;&quot;&gt;!=&lt;/span&gt;&lt;span style=&quot;color: #6688cc;&quot;&gt; &lt;/span&gt;&lt;span style=&quot;color: #f280d0;&quot;&gt;0&lt;/span&gt;&lt;span style=&quot;color: #6688cc;&quot;&gt;)&lt;/span&gt;&lt;/div&gt;&lt;/div&gt;&#xa;&#xa;" style="rhombus;whiteSpace=wrap;html=1;" vertex="1" parent="WIyWlLk6GJQsqaUBKTNV-1">
          <mxGeometry x="-110" y="1610" width="160" height="50" as="geometry" />
        </mxCell>
        <mxCell id="gtVxMS7scIeHO5TLat6V-165" value="&lt;div style=&quot;color: rgb(102, 136, 204); background-color: rgb(0, 12, 24); font-family: Consolas, &amp;quot;Courier New&amp;quot;, monospace; font-size: 14px; line-height: 19px;&quot;&gt;Error de conexión con el servidor.&lt;/div&gt;" style="shape=document;whiteSpace=wrap;html=1;boundedLbl=1;" vertex="1" parent="WIyWlLk6GJQsqaUBKTNV-1">
          <mxGeometry x="157.5" y="1595" width="180" height="80" as="geometry" />
        </mxCell>
        <mxCell id="gtVxMS7scIeHO5TLat6V-172" style="edgeStyle=orthogonalEdgeStyle;rounded=0;orthogonalLoop=1;jettySize=auto;html=1;entryX=0.5;entryY=0;entryDx=0;entryDy=0;" edge="1" parent="WIyWlLk6GJQsqaUBKTNV-1" source="gtVxMS7scIeHO5TLat6V-168" target="gtVxMS7scIeHO5TLat6V-171">
          <mxGeometry relative="1" as="geometry" />
        </mxCell>
        <mxCell id="gtVxMS7scIeHO5TLat6V-168" value="&lt;div style=&quot;color: rgb(102, 136, 204); background-color: rgb(0, 12, 24); font-family: Consolas, &amp;quot;Courier New&amp;quot;, monospace; font-size: 14px; line-height: 19px;&quot;&gt;&amp;nbsp;Process, &lt;span style=&quot;color: #225588;&quot;&gt;Exist&lt;/span&gt;, Upgrade.exe&lt;/div&gt;" style="shape=process;whiteSpace=wrap;html=1;backgroundOutline=1;" vertex="1" parent="WIyWlLk6GJQsqaUBKTNV-1">
          <mxGeometry x="-140" y="1710" width="220" height="60" as="geometry" />
        </mxCell>
        <mxCell id="gtVxMS7scIeHO5TLat6V-174" style="edgeStyle=orthogonalEdgeStyle;rounded=0;orthogonalLoop=1;jettySize=auto;html=1;" edge="1" parent="WIyWlLk6GJQsqaUBKTNV-1" source="gtVxMS7scIeHO5TLat6V-171" target="gtVxMS7scIeHO5TLat6V-173">
          <mxGeometry relative="1" as="geometry" />
        </mxCell>
        <mxCell id="gtVxMS7scIeHO5TLat6V-175" value="TRUE" style="edgeLabel;html=1;align=center;verticalAlign=middle;resizable=0;points=[];" vertex="1" connectable="0" parent="gtVxMS7scIeHO5TLat6V-174">
          <mxGeometry x="-0.1692" y="-1" relative="1" as="geometry">
            <mxPoint as="offset" />
          </mxGeometry>
        </mxCell>
        <mxCell id="gtVxMS7scIeHO5TLat6V-177" style="edgeStyle=orthogonalEdgeStyle;rounded=0;orthogonalLoop=1;jettySize=auto;html=1;entryX=0.5;entryY=0;entryDx=0;entryDy=0;" edge="1" parent="WIyWlLk6GJQsqaUBKTNV-1" source="gtVxMS7scIeHO5TLat6V-171" target="gtVxMS7scIeHO5TLat6V-176">
          <mxGeometry relative="1" as="geometry">
            <mxPoint x="140" y="2040" as="targetPoint" />
            <Array as="points">
              <mxPoint x="130" y="1835" />
              <mxPoint x="130" y="2040" />
              <mxPoint x="-30" y="2040" />
            </Array>
          </mxGeometry>
        </mxCell>
        <mxCell id="gtVxMS7scIeHO5TLat6V-179" value="FALSE" style="edgeLabel;html=1;align=center;verticalAlign=middle;resizable=0;points=[];" vertex="1" connectable="0" parent="gtVxMS7scIeHO5TLat6V-177">
          <mxGeometry x="-0.8931" relative="1" as="geometry">
            <mxPoint as="offset" />
          </mxGeometry>
        </mxCell>
        <mxCell id="gtVxMS7scIeHO5TLat6V-171" value="&lt;div style=&quot;color: rgb(102, 136, 204); background-color: rgb(0, 12, 24); font-family: Consolas, &amp;quot;Courier New&amp;quot;, monospace; font-size: 14px; line-height: 19px;&quot;&gt;(ErrorLevel &lt;span style=&quot;color: #225588;&quot;&gt;!=&lt;/span&gt; &lt;span style=&quot;color: #f280d0;&quot;&gt;0&lt;/span&gt;)&lt;/div&gt;" style="rhombus;whiteSpace=wrap;html=1;" vertex="1" parent="WIyWlLk6GJQsqaUBKTNV-1">
          <mxGeometry x="-110" y="1810" width="160" height="50" as="geometry" />
        </mxCell>
        <mxCell id="gtVxMS7scIeHO5TLat6V-178" style="edgeStyle=orthogonalEdgeStyle;rounded=0;orthogonalLoop=1;jettySize=auto;html=1;" edge="1" parent="WIyWlLk6GJQsqaUBKTNV-1" source="gtVxMS7scIeHO5TLat6V-173">
          <mxGeometry relative="1" as="geometry">
            <mxPoint x="-30" y="2060" as="targetPoint" />
          </mxGeometry>
        </mxCell>
        <mxCell id="gtVxMS7scIeHO5TLat6V-173" value="&lt;div style=&quot;color: rgb(102, 136, 204); background-color: rgb(0, 12, 24); font-family: Consolas, &amp;quot;Courier New&amp;quot;, monospace; font-size: 14px; line-height: 19px;&quot;&gt;Process, &lt;span style=&quot;color: #225588;&quot;&gt;Close&lt;/span&gt;, Upgrade.exe &lt;span style=&quot;color: #384887;&quot;&gt;;Cerramos el proceso&lt;/span&gt;&lt;/div&gt;" style="shape=process;whiteSpace=wrap;html=1;backgroundOutline=1;" vertex="1" parent="WIyWlLk6GJQsqaUBKTNV-1">
          <mxGeometry x="-140" y="1910" width="220" height="90" as="geometry" />
        </mxCell>
        <mxCell id="gtVxMS7scIeHO5TLat6V-181" style="edgeStyle=orthogonalEdgeStyle;rounded=0;orthogonalLoop=1;jettySize=auto;html=1;" edge="1" parent="WIyWlLk6GJQsqaUBKTNV-1" source="gtVxMS7scIeHO5TLat6V-176" target="gtVxMS7scIeHO5TLat6V-180">
          <mxGeometry relative="1" as="geometry" />
        </mxCell>
        <mxCell id="gtVxMS7scIeHO5TLat6V-176" value="&lt;div style=&quot;color: rgb(102, 136, 204); background-color: rgb(0, 12, 24); font-family: Consolas, &amp;quot;Courier New&amp;quot;, monospace; font-size: 14px; line-height: 19px;&quot;&gt;FileMove, %upgradeAHK%, %upgradeAHK%, &lt;span style=&quot;color: #f280d0;&quot;&gt;1&lt;/span&gt;&lt;/div&gt;" style="shape=process;whiteSpace=wrap;html=1;backgroundOutline=1;" vertex="1" parent="WIyWlLk6GJQsqaUBKTNV-1">
          <mxGeometry x="-130" y="2060" width="200" height="80" as="geometry" />
        </mxCell>
        <mxCell id="gtVxMS7scIeHO5TLat6V-183" style="edgeStyle=orthogonalEdgeStyle;rounded=0;orthogonalLoop=1;jettySize=auto;html=1;entryX=0.011;entryY=0.501;entryDx=0;entryDy=0;entryPerimeter=0;" edge="1" parent="WIyWlLk6GJQsqaUBKTNV-1" source="gtVxMS7scIeHO5TLat6V-180" target="gtVxMS7scIeHO5TLat6V-182">
          <mxGeometry relative="1" as="geometry" />
        </mxCell>
        <mxCell id="gtVxMS7scIeHO5TLat6V-184" value="TRUE" style="edgeLabel;html=1;align=center;verticalAlign=middle;resizable=0;points=[];" vertex="1" connectable="0" parent="gtVxMS7scIeHO5TLat6V-183">
          <mxGeometry x="-0.238" relative="1" as="geometry">
            <mxPoint as="offset" />
          </mxGeometry>
        </mxCell>
        <mxCell id="gtVxMS7scIeHO5TLat6V-186" style="edgeStyle=orthogonalEdgeStyle;rounded=0;orthogonalLoop=1;jettySize=auto;html=1;" edge="1" parent="WIyWlLk6GJQsqaUBKTNV-1" source="gtVxMS7scIeHO5TLat6V-180" target="gtVxMS7scIeHO5TLat6V-185">
          <mxGeometry relative="1" as="geometry" />
        </mxCell>
        <mxCell id="gtVxMS7scIeHO5TLat6V-187" value="ELSE" style="edgeLabel;html=1;align=center;verticalAlign=middle;resizable=0;points=[];" vertex="1" connectable="0" parent="gtVxMS7scIeHO5TLat6V-186">
          <mxGeometry x="-0.2" y="1" relative="1" as="geometry">
            <mxPoint as="offset" />
          </mxGeometry>
        </mxCell>
        <mxCell id="gtVxMS7scIeHO5TLat6V-180" value="&lt;div style=&quot;color: rgb(102, 136, 204); background-color: rgb(0, 12, 24); font-family: Consolas, &amp;quot;Courier New&amp;quot;, monospace; font-size: 14px; line-height: 19px;&quot;&gt;(ErrorLevel &lt;span style=&quot;color: #225588;&quot;&gt;!=&lt;/span&gt; &lt;span style=&quot;color: #f280d0;&quot;&gt;0&lt;/span&gt;)&lt;/div&gt;" style="rhombus;whiteSpace=wrap;html=1;" vertex="1" parent="WIyWlLk6GJQsqaUBKTNV-1">
          <mxGeometry x="-110" y="2180" width="160" height="50" as="geometry" />
        </mxCell>
        <mxCell id="gtVxMS7scIeHO5TLat6V-182" value="&lt;div style=&quot;color: rgb(102, 136, 204); background-color: rgb(0, 12, 24); font-family: Consolas, &amp;quot;Courier New&amp;quot;, monospace; font-size: 14px; line-height: 19px;&quot;&gt;Error al reemplazar el archivo existente.&lt;/div&gt;" style="shape=document;whiteSpace=wrap;html=1;boundedLbl=1;" vertex="1" parent="WIyWlLk6GJQsqaUBKTNV-1">
          <mxGeometry x="110" y="2170" width="180" height="70" as="geometry" />
        </mxCell>
        <mxCell id="gtVxMS7scIeHO5TLat6V-189" style="edgeStyle=orthogonalEdgeStyle;rounded=0;orthogonalLoop=1;jettySize=auto;html=1;entryX=0.5;entryY=0;entryDx=0;entryDy=0;" edge="1" parent="WIyWlLk6GJQsqaUBKTNV-1" source="gtVxMS7scIeHO5TLat6V-185" target="gtVxMS7scIeHO5TLat6V-188">
          <mxGeometry relative="1" as="geometry" />
        </mxCell>
        <mxCell id="gtVxMS7scIeHO5TLat6V-190" value="TRUE" style="edgeLabel;html=1;align=center;verticalAlign=middle;resizable=0;points=[];" vertex="1" connectable="0" parent="gtVxMS7scIeHO5TLat6V-189">
          <mxGeometry y="-2" relative="1" as="geometry">
            <mxPoint as="offset" />
          </mxGeometry>
        </mxCell>
        <mxCell id="gtVxMS7scIeHO5TLat6V-185" value="&lt;div style=&quot;color: rgb(102, 136, 204); background-color: rgb(0, 12, 24); font-family: Consolas, &amp;quot;Courier New&amp;quot;, monospace; font-size: 14px; line-height: 19px;&quot;&gt;FileExist(&lt;span style=&quot;color: #22aa44;&quot;&gt;&quot;%upgradeEXE%&quot;&lt;/span&gt;)&lt;/div&gt;" style="rhombus;whiteSpace=wrap;html=1;" vertex="1" parent="WIyWlLk6GJQsqaUBKTNV-1">
          <mxGeometry x="-135" y="2300" width="210" height="60" as="geometry" />
        </mxCell>
        <mxCell id="gtVxMS7scIeHO5TLat6V-192" style="edgeStyle=orthogonalEdgeStyle;rounded=0;orthogonalLoop=1;jettySize=auto;html=1;entryX=0.5;entryY=0;entryDx=0;entryDy=0;" edge="1" parent="WIyWlLk6GJQsqaUBKTNV-1" source="gtVxMS7scIeHO5TLat6V-188" target="gtVxMS7scIeHO5TLat6V-191">
          <mxGeometry relative="1" as="geometry" />
        </mxCell>
        <mxCell id="gtVxMS7scIeHO5TLat6V-188" value="&lt;div style=&quot;color: rgb(102, 136, 204); background-color: rgb(0, 12, 24); font-family: Consolas, &amp;quot;Courier New&amp;quot;, monospace; font-size: 14px; line-height: 19px;&quot;&gt;FileDelete, %upgradeEXE%&lt;/div&gt;" style="shape=process;whiteSpace=wrap;html=1;backgroundOutline=1;" vertex="1" parent="WIyWlLk6GJQsqaUBKTNV-1">
          <mxGeometry x="-130" y="2400" width="200" height="50" as="geometry" />
        </mxCell>
        <mxCell id="gtVxMS7scIeHO5TLat6V-194" style="edgeStyle=orthogonalEdgeStyle;rounded=0;orthogonalLoop=1;jettySize=auto;html=1;entryX=0.5;entryY=0;entryDx=0;entryDy=0;" edge="1" parent="WIyWlLk6GJQsqaUBKTNV-1" source="gtVxMS7scIeHO5TLat6V-191" target="gtVxMS7scIeHO5TLat6V-193">
          <mxGeometry relative="1" as="geometry" />
        </mxCell>
        <mxCell id="gtVxMS7scIeHO5TLat6V-191" value="&lt;div style=&quot;color: rgb(102, 136, 204); background-color: rgb(0, 12, 24); font-family: Consolas, &amp;quot;Courier New&amp;quot;, monospace; font-size: 14px; line-height: 19px;&quot;&gt;RunWait, Ahk2Exe.exe &lt;span style=&quot;color: #225588;&quot;&gt;/&lt;/span&gt;in &lt;span style=&quot;color: #22aa44;&quot;&gt;&quot;%userProfile%\Desktop\Upgrade.ahk&quot;&lt;/span&gt; &lt;span style=&quot;color: #225588;&quot;&gt;/&lt;/span&gt;out &lt;span style=&quot;color: #22aa44;&quot;&gt;&quot;%userProfile%\Desktop\Upgrade.exe&quot;&lt;/span&gt;&lt;/div&gt;" style="shape=process;whiteSpace=wrap;html=1;backgroundOutline=1;" vertex="1" parent="WIyWlLk6GJQsqaUBKTNV-1">
          <mxGeometry x="-220" y="2500" width="380" height="90" as="geometry" />
        </mxCell>
        <mxCell id="gtVxMS7scIeHO5TLat6V-196" style="edgeStyle=orthogonalEdgeStyle;rounded=0;orthogonalLoop=1;jettySize=auto;html=1;entryX=0.5;entryY=0;entryDx=0;entryDy=0;" edge="1" parent="WIyWlLk6GJQsqaUBKTNV-1" source="gtVxMS7scIeHO5TLat6V-193" target="gtVxMS7scIeHO5TLat6V-195">
          <mxGeometry relative="1" as="geometry" />
        </mxCell>
        <mxCell id="gtVxMS7scIeHO5TLat6V-199" value="TRUE" style="edgeLabel;html=1;align=center;verticalAlign=middle;resizable=0;points=[];" vertex="1" connectable="0" parent="gtVxMS7scIeHO5TLat6V-196">
          <mxGeometry x="-0.2192" relative="1" as="geometry">
            <mxPoint as="offset" />
          </mxGeometry>
        </mxCell>
        <mxCell id="gtVxMS7scIeHO5TLat6V-201" style="edgeStyle=orthogonalEdgeStyle;rounded=0;orthogonalLoop=1;jettySize=auto;html=1;" edge="1" parent="WIyWlLk6GJQsqaUBKTNV-1" source="gtVxMS7scIeHO5TLat6V-193" target="gtVxMS7scIeHO5TLat6V-200">
          <mxGeometry relative="1" as="geometry" />
        </mxCell>
        <mxCell id="gtVxMS7scIeHO5TLat6V-202" value="FALSE" style="edgeLabel;html=1;align=center;verticalAlign=middle;resizable=0;points=[];" vertex="1" connectable="0" parent="gtVxMS7scIeHO5TLat6V-201">
          <mxGeometry x="-0.4414" y="2" relative="1" as="geometry">
            <mxPoint x="7" y="2" as="offset" />
          </mxGeometry>
        </mxCell>
        <mxCell id="gtVxMS7scIeHO5TLat6V-193" value="&lt;div style=&quot;color: rgb(102, 136, 204); background-color: rgb(0, 12, 24); font-family: Consolas, &amp;quot;Courier New&amp;quot;, monospace; font-size: 14px; line-height: 19px;&quot;&gt;(ErrorLevel &lt;span style=&quot;color: #225588;&quot;&gt;==&lt;/span&gt; &lt;span style=&quot;color: #f280d0;&quot;&gt;0&lt;/span&gt;)&lt;/div&gt;" style="rhombus;whiteSpace=wrap;html=1;" vertex="1" parent="WIyWlLk6GJQsqaUBKTNV-1">
          <mxGeometry x="-115" y="2620" width="170" height="50" as="geometry" />
        </mxCell>
        <mxCell id="gtVxMS7scIeHO5TLat6V-198" style="edgeStyle=orthogonalEdgeStyle;rounded=0;orthogonalLoop=1;jettySize=auto;html=1;entryX=0.5;entryY=0;entryDx=0;entryDy=0;entryPerimeter=0;" edge="1" parent="WIyWlLk6GJQsqaUBKTNV-1" source="gtVxMS7scIeHO5TLat6V-195" target="gtVxMS7scIeHO5TLat6V-197">
          <mxGeometry relative="1" as="geometry" />
        </mxCell>
        <mxCell id="gtVxMS7scIeHO5TLat6V-195" value="&lt;div style=&quot;color: rgb(102, 136, 204); background-color: rgb(0, 12, 24); font-family: Consolas, &amp;quot;Courier New&amp;quot;, monospace; font-size: 14px; line-height: 19px;&quot;&gt;Run, %upgradeEXE%&lt;br&gt;&lt;/div&gt;&lt;div style=&quot;color: rgb(102, 136, 204); background-color: rgb(0, 12, 24); font-family: Consolas, &amp;quot;Courier New&amp;quot;, monospace; font-size: 14px; line-height: 19px;&quot;&gt;&lt;div style=&quot;line-height: 19px;&quot;&gt;executed := &lt;span style=&quot;color: #f280d0;&quot;&gt;1&lt;/span&gt;&lt;/div&gt;&lt;/div&gt;" style="shape=process;whiteSpace=wrap;html=1;backgroundOutline=1;" vertex="1" parent="WIyWlLk6GJQsqaUBKTNV-1">
          <mxGeometry x="-120" y="2710" width="180" height="60" as="geometry" />
        </mxCell>
        <mxCell id="gtVxMS7scIeHO5TLat6V-204" style="edgeStyle=orthogonalEdgeStyle;rounded=0;orthogonalLoop=1;jettySize=auto;html=1;entryX=0.5;entryY=0;entryDx=0;entryDy=0;entryPerimeter=0;" edge="1" parent="WIyWlLk6GJQsqaUBKTNV-1" source="gtVxMS7scIeHO5TLat6V-197" target="gtVxMS7scIeHO5TLat6V-203">
          <mxGeometry relative="1" as="geometry" />
        </mxCell>
        <mxCell id="gtVxMS7scIeHO5TLat6V-197" value="&lt;div style=&quot;border-color: var(--border-color); color: rgb(102, 136, 204); font-family: Consolas, &amp;quot;Courier New&amp;quot;, monospace; font-size: 14px;&quot;&gt;&lt;div style=&quot;background-color: rgb(0, 12, 24); line-height: 19px;&quot;&gt;&lt;div style=&quot;line-height: 19px;&quot;&gt;Sleep, &lt;span style=&quot;color: #f280d0;&quot;&gt;60000&lt;/span&gt;&lt;/div&gt;&lt;/div&gt;&lt;/div&gt;" style="strokeWidth=2;html=1;shape=mxgraph.flowchart.delay;whiteSpace=wrap;" vertex="1" parent="WIyWlLk6GJQsqaUBKTNV-1">
          <mxGeometry x="-85" y="2810" width="110" height="40" as="geometry" />
        </mxCell>
        <mxCell id="gtVxMS7scIeHO5TLat6V-200" value="&lt;div style=&quot;color: rgb(102, 136, 204); background-color: rgb(0, 12, 24); font-family: Consolas, &amp;quot;Courier New&amp;quot;, monospace; font-size: 14px; line-height: 19px;&quot;&gt;Error al compilar Upgrade.&lt;/div&gt;" style="shape=document;whiteSpace=wrap;html=1;boundedLbl=1;" vertex="1" parent="WIyWlLk6GJQsqaUBKTNV-1">
          <mxGeometry x="120" y="2615" width="160" height="60" as="geometry" />
        </mxCell>
        <mxCell id="gtVxMS7scIeHO5TLat6V-203" value="&lt;div style=&quot;color: rgb(102, 136, 204); background-color: rgb(0, 12, 24); font-family: Consolas, &amp;quot;Courier New&amp;quot;, monospace; font-size: 14px; line-height: 19px;&quot;&gt;Break&lt;/div&gt;" style="strokeWidth=2;html=1;shape=mxgraph.flowchart.loop_limit;whiteSpace=wrap;" vertex="1" parent="WIyWlLk6GJQsqaUBKTNV-1">
          <mxGeometry x="-80" y="2892.5" width="100" height="60" as="geometry" />
        </mxCell>
        <mxCell id="gtVxMS7scIeHO5TLat6V-205" value="3" style="ellipse;whiteSpace=wrap;html=1;" vertex="1" parent="WIyWlLk6GJQsqaUBKTNV-1">
          <mxGeometry x="1415" y="1000" width="40" height="40" as="geometry" />
        </mxCell>
        <mxCell id="gtVxMS7scIeHO5TLat6V-212" style="edgeStyle=orthogonalEdgeStyle;rounded=0;orthogonalLoop=1;jettySize=auto;html=1;" edge="1" parent="WIyWlLk6GJQsqaUBKTNV-1" source="gtVxMS7scIeHO5TLat6V-210" target="gtVxMS7scIeHO5TLat6V-211">
          <mxGeometry relative="1" as="geometry" />
        </mxCell>
        <mxCell id="gtVxMS7scIeHO5TLat6V-210" value="3" style="ellipse;whiteSpace=wrap;html=1;" vertex="1" parent="WIyWlLk6GJQsqaUBKTNV-1">
          <mxGeometry x="1335" y="1169" width="40" height="40" as="geometry" />
        </mxCell>
        <mxCell id="gtVxMS7scIeHO5TLat6V-214" style="edgeStyle=orthogonalEdgeStyle;rounded=0;orthogonalLoop=1;jettySize=auto;html=1;" edge="1" parent="WIyWlLk6GJQsqaUBKTNV-1" source="gtVxMS7scIeHO5TLat6V-211" target="gtVxMS7scIeHO5TLat6V-213">
          <mxGeometry relative="1" as="geometry" />
        </mxCell>
        <mxCell id="gtVxMS7scIeHO5TLat6V-211" value="&lt;div style=&quot;color: rgb(102, 136, 204); background-color: rgb(0, 12, 24); font-family: Consolas, &amp;quot;Courier New&amp;quot;, monospace; font-size: 14px; line-height: 19px;&quot;&gt;Shutdown, &lt;span style=&quot;color: #f280d0;&quot;&gt;6&lt;/span&gt;&amp;nbsp;&lt;/div&gt;" style="shape=process;whiteSpace=wrap;html=1;backgroundOutline=1;" vertex="1" parent="WIyWlLk6GJQsqaUBKTNV-1">
          <mxGeometry x="1280" y="1250" width="150" height="35" as="geometry" />
        </mxCell>
        <mxCell id="gtVxMS7scIeHO5TLat6V-213" value="&lt;div style=&quot;color: rgb(102, 136, 204); background-color: rgb(0, 12, 24); font-family: Consolas, &amp;quot;Courier New&amp;quot;, monospace; font-size: 14px; line-height: 19px;&quot;&gt;Break&lt;/div&gt;" style="strokeWidth=2;html=1;shape=mxgraph.flowchart.loop_limit;whiteSpace=wrap;" vertex="1" parent="WIyWlLk6GJQsqaUBKTNV-1">
          <mxGeometry x="1305" y="1315" width="100" height="60" as="geometry" />
        </mxCell>
        <mxCell id="gtVxMS7scIeHO5TLat6V-220" style="edgeStyle=orthogonalEdgeStyle;rounded=0;orthogonalLoop=1;jettySize=auto;html=1;" edge="1" parent="WIyWlLk6GJQsqaUBKTNV-1" source="gtVxMS7scIeHO5TLat6V-215" target="gtVxMS7scIeHO5TLat6V-219">
          <mxGeometry relative="1" as="geometry" />
        </mxCell>
        <mxCell id="gtVxMS7scIeHO5TLat6V-215" value="&lt;div style=&quot;color: rgb(102, 136, 204); background-color: rgb(0, 12, 24); font-family: Consolas, &amp;quot;Courier New&amp;quot;, monospace; font-size: 14px; line-height: 19px;&quot;&gt;Run, cmd.exe &lt;span style=&quot;color: #225588;&quot;&gt;/&lt;/span&gt;c ipconfig &lt;span style=&quot;color: #225588;&quot;&gt;/&lt;/span&gt;flushdns,, &lt;span style=&quot;color: #225588;&quot;&gt;hide&lt;/span&gt;&lt;/div&gt;" style="shape=process;whiteSpace=wrap;html=1;backgroundOutline=1;" vertex="1" parent="WIyWlLk6GJQsqaUBKTNV-1">
          <mxGeometry x="1490" y="1110" width="280" height="60" as="geometry" />
        </mxCell>
        <mxCell id="gtVxMS7scIeHO5TLat6V-219" value="&lt;div style=&quot;color: rgb(102, 136, 204); background-color: rgb(0, 12, 24); font-family: Consolas, &amp;quot;Courier New&amp;quot;, monospace; font-size: 14px; line-height: 19px;&quot;&gt;Break&lt;/div&gt;" style="strokeWidth=2;html=1;shape=mxgraph.flowchart.loop_limit;whiteSpace=wrap;" vertex="1" parent="WIyWlLk6GJQsqaUBKTNV-1">
          <mxGeometry x="1580" y="1190" width="100" height="60" as="geometry" />
        </mxCell>
        <mxCell id="gtVxMS7scIeHO5TLat6V-221" value="Goto, Start" style="rounded=1;whiteSpace=wrap;html=1;fontSize=12;glass=0;strokeWidth=1;shadow=0;" vertex="1" parent="WIyWlLk6GJQsqaUBKTNV-1">
          <mxGeometry x="1365" y="480" width="120" height="40" as="geometry" />
        </mxCell>
      </root>
    </mxGraphModel>
  </diagram>
</mxfile>
